<?xml version="1.0" encoding="utf-8"?>
<!-- Generator: Adobe Illustrator 19.0.0, SVG Export Plug-In . SVG Version: 6.00 Build 0)  -->
<svg version="1.1" xmlns="http://www.w3.org/2000/svg" xmlns:xlink="http://www.w3.org/1999/xlink" x="0px" y="0px"
	 viewBox="182 -279.1 614 622.1" style="enable-background:new 182 -279.1 614 622.1;" xml:space="preserve">
<style type="text/css">
	.st0{display:none;}
	.st1{display:inline;fill:#7F7D7D;}
	.st2{display:inline;fill:#B5B5B5;}
	.st3{display:none;fill:#FFFFFF;}
	.st4{fill:#FFFFFF;}
</style>
<g id="Ebene_3" class="st0">
	<rect x="148" y="-317.1" class="st1" width="756" height="757"/>
</g>
<g id="Ebene_1">
	<g id="Ebene_2" class="st0">
		<rect x="197" y="-323.2" class="st2" width="659" height="657"/>
	</g>
	<g id="Ebene_1_1_">
		<g>
			<path class="st3" d="M369-214.3c-0.4-6.4,1-11,2-16c9.4-4.5,22.1-0.1,34-1c1.8,1.9-5.2,0.9-6,1
				C387.6-228.3,377.5-220.3,369-214.3z"/>
			<path class="st3" d="M410-230.3c5.3-1.6,15,1,23,0c0.2,3.2,2.3,7.4,0,10C424.4-222.7,419.8-229.1,410-230.3z"/>
			<path class="st3" d="M435-230.3c4.9,1.2,5.5,12.9,0,14C433.7-220,437.4-224.6,435-230.3z"/>
			<path class="st3" d="M445-219.3h4c3.1,5.6,7.1,10.2,7,19c-4.5-0.2-4.2,4.5-4,9h-6c-0.8-1.9-1.7-3.7-2-6c4.2,2.5,5.1-1.6,8-3
				c-0.7-3.3-1.6-6.4-2-10c-0.9-2.7-1.9,2.7-5,1C442.4-213.2,444.4-214.2,445-219.3z"/>
			<path class="st3" d="M430-217.3c4.8-2.2,7.5,9.7,13,7c0.1,4.6,2.9,6.4,2,12C439.2-203.8,437.4-213.4,430-217.3z"/>
			<path class="st3" d="M420-210.3c1.5,0.5,2.5,1.5,4,2C423.4-205.9,419-207.8,420-210.3z"/>
			<path class="st3" d="M432-206.3c3.7-0.5,7.6,10.6,8,17C435.8-193.5,436.5-202.5,432-206.3z"/>
			<path class="st3" d="M448-207.3c1.7,1.4,2.9,6,1,8C445.1-199,445.1-206.5,448-207.3z"/>
			<path class="st3" d="M363-204.3c-0.2,1.1-2,0.7-2,2c-1,0-0.8-1.2-1-2C361.3-205.5,361.6-204.7,363-204.3z"/>
			<path class="st3" d="M424-204.3c2.2-0.2,3.2,0.8,3,3C426.1-202.4,423.3-201.6,424-204.3z"/>
			<path class="st3" d="M310-200.3c0.8-1.7,8.2-1.7,9,0C319.2-196.4,310.1-198.1,310-200.3z"/>
			<path class="st3" d="M328-160.3c-2.9-0.1-6.5,0.5-8-1c0.8-4.5,3.4-7.3,6-10c-0.3-16.7,4.5-28.2,21-28
				C333.4-193.8,327.1-177.1,328-160.3z"/>
			<path class="st3" d="M364-199.3C361.8-196.2,357.6-200.5,364-199.3z"/>
			<path class="st3" d="M426-198.3c3-1,1.8,2.2,2,4C426.7-195,426.1-196.4,426-198.3z"/>
			<path class="st3" d="M351-195.3c1.4-2.3,7-0.4,10-1c-0.9,1.8-4.1,1.3-3,5C354.7-191.7,353.6-194.2,351-195.3z"/>
			<path class="st3" d="M312-195.3c3.2-0.2-0.6,7.4,3,9c-2-1.7-1.3,0.1-4,0C310.5-190.2,312.8-191.2,312-195.3z"/>
			<path class="st3" d="M361-111.3c-3-5.3,1.7-10.9,2-17c0.4-8.3-6.3-13.6-7-23c3.2-2.4,12.9,1.5,12-5c3.2-0.9,1.4,3.3,3,4
				c3.7,0.7,7.3,1.4,12,1c-1.9-4.8-7.4-5.9-10-10c-2.1,1.5,3.4,3.9,3,7c-3.7,0.1-4.9-2.5-7-4c-3.4-0.7-1.6,3.7-4,4
				c-3.6,0.2-6-0.7-7-3c-0.6-5.9,6.3-4.4,5-11c-3.4,1.3-2.9,6.4-8,6c0.2,3.2-1.8,4.2-1,8c-8.9,1.5-23,3.5-33,8c-2.7-2.4,0-8,0-11
				c3-1,7.2-0.8,9-3c-6.2-16.6,10.9-16.6,10-31c2.2-1.1,3.3-3.3,6-4c4.9,0.8,6.8,4.5,11,6c-1.9,4-5.6,0.3-9,2c-0.5,4.8,3.9,5.4,7,4
				c1.4,5.5,3.1,6,6,11c1.5-1.5,5.1-0.9,8-1c2.9,5.6,8.7,5.8,9,12c2.4,0,2.9-1.7,6-1c-1.2,4.4,3.1,6.1,6,9c-1.6,5.4-3.2,10.8-12,9
				C373.4-132.2,366.1-122.9,361-111.3z"/>
			<path class="st3" d="M360-194.3c4.1,2.2,0.7,13.1-1,16C357.1-181.9,359.5-189.8,360-194.3z"/>
			<path class="st3" d="M367-193.3c2.7,4,1.7,11.6,4,16c-3.1-0.7-2.9,1.7-6,1c2.5-2.2,6-12.2-2-11C364.7-189,367.1-189.9,367-193.3z
				"/>
			<path class="st3" d="M315-192.3h4C320.2-188.8,313.4-187.6,315-192.3z"/>
			<path class="st3" d="M282-191.3c3.9,0.1,4.1,3.9,4,8C283.6-184.9,282.3-187.6,282-191.3z"/>
			<path class="st3" d="M480-170.3c-0.3-7.6,6.4-12.7,0-18c-16.9-1.1-30.2,0.8-49,4c13.1-6,35.6-7.6,53-6c0.9,0.8,0.6,2.7,2,3
				C486.3-179.3,485.9-172.1,480-170.3z"/>
			<path class="st3" d="M316-186.3C319-190,319.4-183.3,316-186.3z"/>
			<path class="st3" d="M453-185.3c0.8,4.8-1.6,6.4-1,11c-4.4-0.7-4.4,2.9-8,3c0.8-4.2,2.6-7.4,2-13
				C447.3-185.7,450.3-185.3,453-185.3z"/>
			<path class="st3" d="M480-184.3c-6.4,15.5-2.4,21.2-4,40c-9-1.3-4.4-14.3-7-23c-2.6-8.5-8.1-11.1-12-17
				C466.4-184.1,470.5-186.4,480-184.3z"/>
			<path class="st3" d="M363-183.3c1.2-3.2,1.1,2.7,1,4C362.9-176.1,362.9-182,363-183.3z"/>
			<path class="st4" d="M316-180.3c-0.1,3.2-2.3,4.4-6,4C306.8-181,313.3-184.3,316-180.3z M311-178.3c1.6-0.1,3.5,0.1,3-2h-2
				C312-179.3,311.2-179.1,311-178.3z"/>
			<path class="st3" d="M312-180.3h2c0.5,2.1-1.4,1.9-3,2C311.2-179.1,312-179.3,312-180.3z"/>
			<path class="st3" d="M456-178.3c8.8,4.2,10.4,15.6,10,29c-8-0.6-12.1,2.7-20,0c1.7-1.6,5-1.7,6-4
				C451.1-161.1,453.4-171,456-178.3z"/>
			<path class="st4" d="M493-172.3c0.4,4.4-2.6,5.4-7,5C484.9-174.1,489.1-175.1,493-172.3z M488-169.3c1.7,0.1,2.6-0.8,3-2
				C489.4-171.2,487.5-171.4,488-169.3z"/>
			<path class="st4" d="M495-173.3c4.3,0.4,10.3-1,13,1c-0.9,3.5-0.1,2.5-1,6h-11C494.6-167.6,495-170.6,495-173.3z M497-169.3
				c0.5,1.4,9,2.4,8-1C504.5-171.7,496-172.7,497-169.3z"/>
			<path class="st3" d="M447-171.3c5.1,2.8-0.9,10.8,1,17h-14C438.9-159.4,441-167.3,447-171.3z"/>
			<path class="st3" d="M491-171.3c-0.4,1.2-1.3,2.1-3,2C487.5-171.4,489.4-171.2,491-171.3z"/>
			<path class="st3" d="M505-170.3c1,3.4-7.5,2.4-8,1C496-172.7,504.5-171.7,505-170.3z"/>
			<path class="st3" d="M481-157.3c10.9,0.8,20.2,1.4,29,2c-1.2,5.8-2.6,11.4-5,16c-9.5,1.1-14-1.3-24-1
				C479.4-146.1,480.6-150.9,481-157.3L481-157.3z"/>
			<path class="st3" d="M436-150.3c-2.2,4.5-9,3.4-13,4c-10.9,1.7-25.7,3.8-34,2c1.1-8,23.2-2.9,27-3
				C423.2-147.5,429.3-150.4,436-150.3z"/>
			<path class="st3" d="M474-119.3c4-6.2,17.2-16.8,22-5c-7.6,3.7-12.4,10.2-17,17c-9.5-6.1-19.4-12-27-20c-6.6,0.6-5,0.3-11,1
				c-3.3,1,0.3,4-3,6c-2.4-3.5-0.2-10.8,1-14c-2.7-4.9-11.5-2.1-17-3c-1-2-2-4-3-6c8.4-0.6,19.7,1.7,20-7c3.1,1.6,3.8,5.5,7,7
				c12.3,0.3,15.6-0.3,24,2c-1.8,5.6-8.6,6.1-10,12c5.3-5.7,17.3-17.1,25-3C482.9-126.4,474.6-126.7,474-119.3z"/>
			<path class="st3" d="M358-142.3c-2.3,1.9-4.7-4.6-6-7C356.2-149.1,355.7-144.3,358-142.3z"/>
			<path class="st3" d="M356-124.3c4.1-2.2,1.5-12,1-16c5.3,4.5,5.8,13.8,2,20c-1.2-0.2-0.8-1.8-1-3c-0.7,4.6-5.4,4.3-10,7
				c-5.6-8.8-4.3-18.8-7-31C353.9-152.5,359.4-137.5,356-124.3z"/>
			<path class="st3" d="M334-146.3h5c1.1,4.6,2.3,9,3,14C339.6-137.2,333.9-138.9,334-146.3L334-146.3z"/>
			<path class="st3" d="M346-116.3c-2.9,1.5-6.6,2-9,4c-5.3-9.7-9.7-20.3-15-30c2.7-1.3,5.6-2.4,10-2
				C337.8-136.1,342.9-127.2,346-116.3z"/>
			<path class="st3" d="M382-139.3c-6.2,8.9-1.3,19.3-6,29c7.4-5.3,0.8-24.5,9-29c-0.1-1.8-3.4-0.6-4-2c8.6,1,25.7,0,35-1
				c-2.1,3.9-7.8,4.2-6,12c-8.3,2.9-11.4,5.4-23,4c-6.2,4.7,1.7,11.1,0,16c-3.5,1.7-6.2,0.3-12,1c-1.9,2.9-1.1,10,0,13
				c12.4,1.6,29.5-1.5,32,10c-10-2-19.9-4.1-28-8c-2.9,0.1-1.8,4.2-2,7c-3.3,0.3-4.4,2.9-9,2c0.7-7.9-1.8-19.1,2-24
				c-5.3-0.3-3.8,6.2-11,4c3.1-6.1,6.5-12.8,10-19C372.2-130,374.8-137.9,382-139.3z"/>
			<path class="st3" d="M335-112.3c-11.4,2-9.6,13.8-10,25c-3.3,1.2-3.1-0.1-8,1c0.5-15.3-7.9-34.2-24-39c6.7-11.5,24.3,0.8,27,9
				c1.6-9.2-13-11-18-17c3.9-3.7,10.8-8.5,15-8C327.6-140,329.5-120,335-112.3z"/>
			<path class="st3" d="M416-139.3c3.9-1.3,2.6,2.7,4,4c5.8-0.4,10.2,0.4,15,1c1.6,4.6-0.2,11.8-1,17c-5.5,0.7-13.5,1.2-23-2
				C409.3-125.9,411.8-135.4,416-139.3z"/>
			<path class="st3" d="M484-137.3c5.2-1.9,14.3,1,21,1c-0.5,5.8,2.4,8.3,3,13C497.9-125.9,493.4-134,484-137.3z"/>
			<path class="st3" d="M409-127.3c0.4,3.4-4.3,1.7-6,3C403-127.3,406.5-126.8,409-127.3z"/>
			<path class="st3" d="M448-125.3c5.2-1.2,3.9,4.1,4,8C448.1-117.3,446.3-122.8,448-125.3z"/>
			<path class="st3" d="M315-97.3c0.2,4.4-3.4-0.9-4-2c-10-5.7-12.4-19-26-21C298.6-132.5,311.8-108.6,315-97.3z"/>
			<path class="st3" d="M451-115.3c1.8-0.2,2.3-1.7,2-4c6.5,2.7-0.4,7.7-2,11c-3.8-3.5-9.2-5.5-14-8c2.8-1.2,4.4-3.6,4-8
				C448.6-125.5,445.9-116.6,451-115.3z"/>
			<path class="st3" d="M497-121.3c-7.4,8.9-17.2,15.5-17,32c-5.2-1.2-1.2-6.6,0-10c0.5-1.5-0.6-3.6,0-5
				C483-111.4,491-119.5,497-121.3z"/>
			<path class="st3" d="M499-121.3c8.2,0.8,14.5,3.5,22,5c-0.3,8.2,0.4,13.9,1,19c-7-1.1-12.7,1.6-22,2
				C499.7-104,500.8-114.1,499-121.3z"/>
			<path class="st3" d="M446-110.3c-2.4,3-6.1-1.2-9-1c-6.3,2-7.7,9-7,18c4.7,5.3,13.4,6.6,24,6c-0.7,4.4,1.7,5.6,1,10
				c-15.6-2.7-48.7-3.3-44-29c-0.5-3.5-6.5-1.5-10-2c-2-3-3.8-6.2-7-8c2.6-2.8,8.3-2.4,13-3C414.5-110.8,437.7-118,446-110.3z"/>
			<path class="st3" d="M313-85.3c-7.8,0.1-10-5.4-13-10c-8.8-7.4-23.3-4.9-34-4c1.8-21.1,22.7-23.3,34-11c1.9,2.1,2,5.4,4,8
				C308.6-96.4,319.3-92.3,313-85.3z"/>
			<path class="st3" d="M390-116.3c11.1,8.2,18.8,19.9,26,32c-10.1-3.5-16.9-18.2-27-25C390.4-110.6,390-113.6,390-116.3z"/>
			<path class="st3" d="M495-77.3c-3-4.8,1.4-9.6,3-13c-3.9-1.9-3.4,9.2-9,9c-4.7-4.9,1.5-12.1,3-17c-4.7,1.6-2.9,9.7-8,11
				c-3.2-13.7,4.2-25,14-29C495.6-105.8,506.7-82.3,495-77.3z"/>
			<path class="st3" d="M358-115.3c-1.5,10.5-6,18-14,22c-2.7-6.7,5.3-11.3,4-20C351.6-113.7,353.3-116,358-115.3z"/>
			<path class="st3" d="M460-114.3c-0.4,1.2-1.3,2.1-3,2C456.5-114.4,458.4-114.2,460-114.3z"/>
			<path class="st3" d="M468-105.3c-2,3-7.7,2.1-10,0C456.7-114.6,468.1-111.1,468-105.3z"/>
			<path class="st3" d="M346-109.3c-2.4,5.9-3.4,13.3-7,18c-3-3,1-13-2-16C337.7-110.2,343.4-111.4,346-109.3z"/>
			<path class="st3" d="M435-108.3c17.5-0.5,25.3,4.5,34,14c-0.5,3.5-5.8,1.6-8,1c-0.1-5.5-6.9-8.7-11-7c2.8,1.5,3.4,5.2,3,10
				c-11,1-13,1-22-4c-0.2-2.5,1.5-3.1,3-4c-0.7-0.9-1.8-1.5-3-2c0.3-1.4,2.5-0.8,4-1C430.2-105.1,435.3-102.2,435-108.3z M439-105.3
				c0.8,4.5-2.3,5-3,8c1.8,1.5,2.5,4.2,5,5C449.2-94,447.7-107.9,439-105.3z"/>
			<path class="st3" d="M335-73.3c-7.4-0.3-5.5-11.7-6-19c-0.3-5-2.1-9.6,0-13c1.9-0.1,3.3-0.7,4-2c1.3,0.4,1.6,1.8,3,2
				C334.3-93.1,337.4-86.4,335-73.3z"/>
			<path class="st3" d="M351-86.3c-1-2.7-6.1-1.2-6-5c7.1-3.6,8.5-12.8,20-12v19c-8.7,0-13.8,8.8-18,10
				C348.1-78.5,350.2-81.8,351-86.3z"/>
			<path class="st3" d="M524-103.3c8.2,4.3,11.6,18.1,9,30c-4-4-9.1-6.9-16-8c2.6-2.5,9.2-0.6,11,1c-1.3-6.2-11-3-20-3
				c4.9-4.4,13.8-4.9,17-11C524.2-96.8,523.7-99.7,524-103.3z"/>
			<path class="st3" d="M294-97.3c-12.1,0.9-14.4,11.6-26,13c-0.7-3.7-1.7-7.6,0-11C274.5-99.2,285.8-100.7,294-97.3z"/>
			<path class="st3" d="M445-95.3c-3,0-6.6,0.6-6-3C441-100.2,446.4-99.8,445-95.3z"/>
			<path class="st3" d="M455-95.3c4.5,2.1,5.8,7.5,13,7v16C455.6-71.9,456.2-84.5,455-95.3z"/>
			<path class="st3" d="M501-93.3c6.8-0.9,13.2-2.2,21-2c-3.5,5.5-16.4,6.9-20,9C501.7-88.7,500.4-90,501-93.3z"/>
			<path class="st3" d="M379-91.3h3c0.3,2.3-0.2,3.8-1,5c-0.8-0.5-1.6-1-3-1C377.9-89.1,379.2-89.4,379-91.3z"/>
			<path class="st3" d="M343-90.3c1.2,2.1-0.6,8.3-4,9C338.5-86,336.7-90.6,343-90.3z"/>
			<path class="st3" d="M383-90.3c3.5-0.1,5.8,0.9,5,5c-1.9,1.9-1.8-0.6-5,0V-90.3z"/>
			<path class="st3" d="M337-73.3c1.5-5.8,6.9-7.8,8-14c2.4-0.4,2.2,1.8,5,1C347.8-79.8,346-67,337-73.3z"/>
			<path class="st3" d="M398-86.3v4c-1.4,1.4-4.9-0.2-7-1v-3C392.9-88.3,395.7-86.8,398-86.3z"/>
			<path class="st3" d="M475-86.3c6.7,7.3,18.8,9.2,20,22c-0.3,3.4-4.5,2.8-6,5c-0.7,3.7-1.1,7.6-2,11c-4.6-3.4-3-13.1-6-18
				c-3-1.6-6.7-2.7-9-5C471.3-78,473.2-82.1,475-86.3z"/>
			<path class="st3" d="M375-83.3c2.4-4,6.6,0.2,11,0C384.2-80.7,378.3-81.7,375-83.3z"/>
			<path class="st3" d="M399-85.3h3v3h-3V-85.3z"/>
			<path class="st3" d="M403-85.3c2.4,0,2.9,1.7,6,1c0.7,3.1-1.7,2.9-1,6c-1.2-0.8-2.7-1.3-5-1V-85.3z"/>
			<path class="st3" d="M377-79.3c-5.1,0.9-7,0.8-10-2C368.2-85,377.6-83.6,377-79.3z"/>
			<path class="st3" d="M410-83.3c2.3-0.3,3.8,0.2,5,1c0.7,3.1-1.7,2.9-1,6C408.4-76.4,409.6-78.7,410-83.3z"/>
			<path class="st3" d="M366-47.3c-4.8,0.2-5-6-10-6c-4.1,0-8,2.3-8,7c0.1,12.5,25.3,4.9,37,4c-11.1,5.6-18.3,11.4-32,10
				c-4.5,6.5-7.2,14.8-17,16c0.3-16.3-1.8-30.2-1-47c2.3,1,4.9,1.8,8,2c-0.2,3.2-2.3,4.4-2,8c10.3-2,14.1-10.6,18-19
				c6.6-2.4,14.7-3.3,20-7c4.2,0.2,8.4,0.4,9-3c3.7,3.2,8.3,2.1,13,3c8,1.6,16.2,7.7,24,9c9.3,1.6,19.8-1.4,26,6h10
				c-1.5,4.1-8.9,2.4-12,5c0.2,3.9,0,7.4-1,10c5.5-1,5.9-4.8,5-10c11.3,0.5,15.9,0.5,23-3c0.5,4.4,3.2,3.4,3,7
				c-0.3,6.3-7.4,5.4-15,5c1.9,7.6-0.5,15-4,20c-5-0.7-3.4-7.9-6-11c-3,1.2,1.1,3.4,0,6c-31.4,4.4-43.2-1.7-78,0c2.4-3.3,8-3.4,12-5
				c1.4-4-2.2-3.2-2-6c3.1-1.9,3.7-6.3,7-8c22-0.8,36.1,1,53,6c-11.3-8.1-29.6-7.1-48-8c-7.8-0.4-19.2-2.4-22-1
				C371.6-55.1,370.4-48.2,366-47.3z M439-65.3c-12.4-4.9-32.6-2.6-45-2c-10.9,0.5-21.7-0.2-33,4c0.3,2.9-2.3,3.1-2,6
				c2.5,3.4,5.2,0.6,10,1c0-2.7-0.4-5.7,1-7c31.9-2.1,48.4-5,75,1C444.7-65.9,440.8-64.6,439-65.3z"/>
			<path class="st3" d="M422-74.3c-2.8,1.2-4.2,0.2-7-1c0.3-2.3,1.6-3.8,1-7c3.2-0.6,4.7,0.7,7,1C421.6-80,422-76.9,422-74.3z"/>
			<path class="st3" d="M369-77.3c-4.9-0.3-9.3,2.7-12-1C359.2-81,368.9-83.7,369-77.3z"/>
			<path class="st3" d="M501-78.3c-0.3-2.3,2.9-1.1,3-3c2.1-0.2,11.5,0,6,1C506.4-79.7,505.4-79.6,501-78.3z"/>
			<path class="st3" d="M424-80.3h5v5c1.8-1.2,0.2-5.8,5-4v7c-6-2-4.5,0-12,0C422.5-75.1,423.5-77.5,424-80.3z"/>
			<path class="st3" d="M304-71.3c-3.5,0.5-3.3,1.2-6,0c-1.6,2.4-2.1,5.9-4,8h-5c-3.1,0.9-1,7-3,9c-7.4,0.8-8.6-4.7-11-9
				C278.9-71.8,298.8-88.1,304-71.3z"/>
			<path class="st3" d="M499-72.3c1.2-6,16.7-8.9,25-6c2.2,0.8,3.1,5.4,6,3c-0.7,3.1,1,3.6,1,6C519.9-75.5,510.8-80.1,499-72.3z"/>
			<path class="st3" d="M435-78.3c2.5-0.1,4.8-0.2,6,1c-0.1,3.9-1.2,6.8-6,6V-78.3z"/>
			<path class="st3" d="M321-77.3h4c-1.8,6.8,5.5,4.5,4,11C324.6-68.2,319-72.1,321-77.3z"/>
			<path class="st3" d="M359-73.3c-2.6,1-6.5,1.6-6-3C355.3-78.5,359.2-76.7,359-73.3z"/>
			<path class="st3" d="M446-70.3c-2.4-1.3-1.9,0.1-5-1c0-2.4,1.7-2.9,1-6c3.1-0.7,3.6,1,6,1C447.2-74.4,446.3-72.6,446-70.3z"/>
			<path class="st3" d="M448-68.3c-3.6-3.9,3-9.9,7-6C454.4-70.6,451.6-69,448-68.3z"/>
			<path class="st3" d="M526-44.3c0.1-1.4,0.2-2.8-1-3c0.8-3.2,2.8-5.2,6-6c-1.3-4.2-3.3,0.9-7,0c-1.8-3.4,0.2-6.5,2-9
				c-4.1,1.5-5.7,5.6-13,4c-1.2-1.2-1.1-3.5-1-6c-3.3,0-2.4,4.2-5,5c-3.9-1.7-8.8-2.5-8-9c14.2-16.5,44.6,3.7,32,23
				C528.2-46.1,528.4-43.9,526-44.3z"/>
			<path class="st3" d="M461-71.3c-1.9,5.2-4.6,6.2-11,5C453.9-67.9,456-76.8,461-71.3z"/>
			<path class="st3" d="M356-68.3c-2.7,2.2-7.3-0.1-10-1C347.9-72.2,356-74.3,356-68.3z"/>
			<path class="st3" d="M335-71.3c6.2-0.3,8.8,3,7,8c-3.5,0.8-3.8-1.5-7-1V-71.3z"/>
			<path class="st3" d="M466-67.3c-3-0.3-3.9,3.2-6,1C460.4-69.6,465.5-72,466-67.3z"/>
			<path class="st3" d="M297-65.3c2.1-2.2,3.2,0.1,5,1c-0.4-1.9-2.2-2.5-2-5c13,1.9,20.7-3.9,26,9c-12.1-0.9-18,1.7-24-3
				c0.3,6.2,0.3,6.8,0,13C299.2-54.1,299.1-60.7,297-65.3z"/>
			<path class="st4" d="M445-62.3c-26.6-6-43.1-3.1-75-1c-1.4,1.3-1,4.3-1,7c-4.8-0.4-7.5,2.4-10-1c-0.3-2.9,2.3-3.1,2-6
				c11.3-4.2,22.1-3.5,33-4c12.4-0.6,32.6-2.9,45,2C440.8-64.6,444.7-65.9,445-62.3z M363-57.3c1-2,4.4-1.6,4-5
				C363.7-63.2,360.3-59.1,363-57.3z"/>
			<path class="st3" d="M345-67.3c3.1-0.7,3.6,1,6,1c-0.2,1.2,0.2,1.8,1,2c-0.1,5.5-4.8,6.5-9,8C344.1-59.5,345-62.9,345-67.3z"/>
			<path class="st3" d="M474-65.3c-0.6,3-4.5,2.8-6,5C465.2-62.8,471.6-64.7,474-65.3z"/>
			<path class="st3" d="M465-62.3c0.4-1.2,1.3-2.1,3-2C467.6-63.1,466.7-62.2,465-62.3z"/>
			<path class="st3" d="M367-62.3c0.4,3.4-3,3-4,5C360.3-59.1,363.7-63.2,367-62.3z"/>
			<path class="st3" d="M298-61.3c-0.2,4.8,1.3,8,2,12c-4.4,0.5-5-1.4-8,0c-0.6-4.4-2.6-7.4-3-12H298z"/>
			<path class="st3" d="M304-58.3h24v6c-9.4-0.1-18.3,0.4-24-1V-58.3z"/>
			<path class="st3" d="M496-9.3c-8.6-5.5,1.2-20.1-7-27c-0.8-9.5,5.3-12,4-22c1.8,0.6,5.9-1.2,6,1c3.9,5.7,2.8,14.5,2,25
				C500.4-23.5,501.9-11.9,496-9.3z"/>
			<path class="st3" d="M500-56.3c6.3-3,13.6,1.8,21,1c0.4,4.6,2.4,7.6,3,12c-5.6-1-13.2-1.3-20-2C503-49.3,502.2-53.4,500-56.3z"/>
			<path class="st3" d="M288-40.3c-5.1-1,0.2-17.1,2-15C293.2-51.6,288.2-45.1,288-40.3z"/>
			<path class="st3" d="M383-54.3c0.4-2.2,4.9-0.4,7-1c-3.8,3.9-4.4,10.9-11,12C378.9-47.9,387.8-51.4,383-54.3z"/>
			<path class="st3" d="M382-53.3c-1.2,3.1-3.3,5.4-6,7c-2.9,0.3-3.1-2.3-6-2C371.2-52.4,376.6-56.7,382-53.3z"/>
			<path class="st3" d="M289-8.3c0.9-8,1.2-15.9,1-27c3.7-0.7,4.3,1.7,8,1c3-1,2-6,3-9c2.2-0.2,0.5,3.5,1,5c2.3-2,0.4-8.3,1-12
				c7-1.5,12.9,0.6,25,0v21c-8.2,1.3-15.1,0.4-24,0c0.2-3.2-1.8-4.2-1-8C300.5-25.5,304.2-7.4,289-8.3z M312-30.3
				c0.3-1.4,1.4-1.9,1-4h-4C308.7-31.7,309.4-30,312-30.3z M323-30.3v-4h-4C318.2-30.9,319.6-29.5,323-30.3z"/>
			<path class="st3" d="M351-50.3c3,0.7-1,2.1,0,4C348.5-46.4,350.7-49.7,351-50.3z"/>
			<path class="st3" d="M301-48.3c0.7-2.8,1.2,2.3,1,3C301.5-43.3,300.1-44.5,301-48.3z"/>
			<path class="st3" d="M329-49.3c1.2-0.2,1.8,0.2,2,1c0.7,12.3,1.4,24.6,1,38h-7C330.2-19.5,329-34.9,329-49.3z"/>
			<path class="st3" d="M476-49.3c1.6-0.3,1.7,0.9,3,1c-2.9,15.1-1.2,34.8-5,49c-9.2-3.4-10.9-14.5-13-25c8.3-1.7,5.4-14.6,8-22
				c3.7,7.6,0.5,23.8,0,38c4.1-3.2,2.6-9.6,3-20c0.3-6.8,1.1-10.9,1-18C474.4-46.9,475.4-47.9,476-49.3z"/>
			<path class="st3" d="M292-48.3c3.2-0.2,4.2,1.8,8,1c-1,3.3-0.5,8.2-2,11c-4.4,0.8-6-1.3-10-1C289.9-40.4,289.9-45.4,292-48.3z"/>
			<path class="st3" d="M481-47.3c3.9,1.9,5.8,8.5,4,13c-2.4,0.4-2.2-1.8-5-1C479.9-40.8,480-45.2,481-47.3z"/>
			<path class="st3" d="M376-44.3c-3.4,2.3-8.4,2.9-14,3C361.8-47.7,373-46.9,376-44.3z"/>
			<path class="st3" d="M355-43.3h2c0.5,2.1-1.4,1.9-3,2C354.2-42.1,355-42.3,355-43.3z"/>
			<path class="st3" d="M525-38.3c-6.8,1.9-16.3-0.3-22-1v-3C508.7-43.1,522.5-44,525-38.3z"/>
			<path class="st3" d="M504-37.3c5.9,1.4,13.5,1.2,20,2c0.3,8.7-0.4,13.2-1,19c-10.2-0.1-9.4-1.2-21-1
				C501.8-24.8,502.5-31.5,504-37.3z M507-18.3c2.7,0.7,2-2,4-2c0.2-2.5-1.5-3.1-3-4C506.8-22.7,504.8-20.4,507-18.3z M516-18.3
				c6.5,1.3,7.5-5.6,1-5C516.2-22.1,515.7-20.6,516-18.3z"/>
			<path class="st4" d="M309-34.3h4c0.4,2.1-0.7,2.6-1,4C309.4-30,308.7-31.7,309-34.3z"/>
			<path class="st4" d="M319-34.3h4v4C319.6-29.5,318.2-30.9,319-34.3z"/>
			<path class="st3" d="M494,57.7c-3-1.4-3.6,0.5-8,0c-6.1-7-2.8-16.7-4-26c-1.3-9.7-6.5-18.1-6-27c0.2-2.8,2.4-4.5,3-7
				c2.1-9.6-0.9-20,1-29c5.3-0.1,8.9,0.1,11,1c-2,10.7,0.1,16.2,3,24c1.2-0.3,3.8-4,5-1c0.2,2.5-1.5,3.1-3,4c-0.1,4.4,3.3,5.4,4,9
				C497.9,22,496.5,39.5,494,57.7z"/>
			<path class="st3" d="M357-30.3c0.4,2.8-3.7,0.9-4,3C350.1-28.7,354.2-31.3,357-30.3z"/>
			<path class="st3" d="M304-27.3c10.2,0.2,18.1-0.6,24,2c-0.7,5.9-6.4,3-9,3c-4,0-8.4,0.2-15,0V-27.3z"/>
			<path class="st4" d="M508-24.3c1.5,0.9,3.2,1.5,3,4c-2,0-1.3,2.7-4,2C504.8-20.4,506.8-22.7,508-24.3z"/>
			<path class="st3" d="M364-21.3c-0.5,5.1-7.2,4.1-11,6c-4.2,6.5-10.4,10.9-18,14c-6.5-12.1,10.7-14.4,15-22
				C353.3-21.2,360.9-23.5,364-21.3z"/>
			<path class="st4" d="M517-23.3c6.5-0.6,5.5,6.3-1,5C515.7-20.6,516.2-22.1,517-23.3z"/>
			<path class="st3" d="M303-20.3h23c-0.4,4.6-2.5,7.5-5,10c-11.1-1-12.4,0.1-22-1C299.6-15,301.8-17.2,303-20.3z"/>
			<path class="st3" d="M412-4.3c0-6.3-8.6-9.4-8-13c18.6,0.9,30.8,0.8,51,1c-1.6,3.7,2.3,9.4,7,10c-3.2,6.7-11.8,4.2-19,5
				c-10.7,1.2-22.1,2.5-28,10c11.1-7.9,35.3-8,49-10c2.1,2.2,0.8,6.7-1,8c5.6,6.1,5.2,23.1,10,26c-17.3-5.4-35.7-6.3-52,3
				c-0.8-6.5-2.3-12.4-2-20c-1.7,7-2.1,15.2-4,22c-3.5-1.2-3.1-6.3-3-11c-4.3,0-2.7,6-3,10c-13.2-8.6-36.5-15.7-55-10
				c8.4-7.4,27.8-8.9,40-4c-3.3-2.5-7.9-4.5-12-5c-13.7-1.5-27.8,7.4-37,9c-1.1-4.1,3.2-10.6,6-14c15.2-7.6,34.9-5.9,54-3
				c-15.7-6.9-39.4-6-55,2c-4.9-9.5,5.2-11.9,4-21c14.1-15.7,38,3.1,47,14c-3.4-9.2-16.9-17.1-29-21C383.4-20.3,404.7-18.9,412-4.3z
				"/>
			<path class="st3" d="M459-16.3c1.4,2.3,2,5.3,3,8c-4.4,0.8-3.4-3.9-6-5C456.1-15.2,459.3-14,459-16.3z"/>
			<path class="st3" d="M501-15.3c10,0.1,14,0.1,22,2c-1,2.3-12.1,2.5-19,1C502.3-12.7,500.4-12.7,501-15.3z"/>
			<path class="st3" d="M352-10.3c2.7,4.7-3.6,9-5,13c0.6,2.1-1.2,6.6,1,7c-5.8,7.2-1.3,24.7-14,25c-1.3-11,5.2-14.1,4-25
				C344.1,4.5,346.7-4.2,352-10.3z"/>
			<path class="st3" d="M501-10.3c8.1-0.8,13.5,1.2,21,1c0.1,5.1-2,8-4,11c-9.6-0.6-10.7,0-20-2C497.3-5.3,502-4.9,501-10.3z"/>
			<path class="st3" d="M330-4.3c3,8,5.1,15.5,1,25c-12.2-0.4-19.7-0.2-26,1c-2.9,0.5-8.2-2.2-7,4c0.6,5.2,6.7,2.6,10,3
				c8.2,1,17.2,1.6,22,2c0.6,7.9-10.5,4.2-17,5c-1.8,4.7-1.9,12.3-3,15c-7.5-1.1-10.9,0.2-21-2c-1.6-17.6-1.7-38.3,1-54
				C304.1-5.2,320.1-5.7,330-4.3z"/>
			<path class="st3" d="M465-3.3c8.5,5.6,6.6,15.1,9,24c1.4,5,6.2,8.9,5,15c-11.1-6.2-5.8-19.3-14-28C467.1,3.5,466.7,1.2,465-3.3z"
				/>
			<path class="st3" d="M343-2.3c0.6,4.6-2.5,5.5-6,6C337.8,0.5,339.8-1.5,343-2.3z"/>
			<path class="st3" d="M302,22.7c-0.7,0.8-1.6,2.7,0,3C300.6,30.1,297.9,21,302,22.7z"/>
			<path class="st3" d="M323,22.7c-1.2,1.5-3.5,4.2,0,5c-4.6,1.5-12-1.8-19-2C308.8,21,312.7,23.7,323,22.7z"/>
			<path class="st3" d="M325,23.7c0.1-2.2,4.2-0.4,6-1c-0.2,3.5-0.8,6.5-5,6C326.8,28,328.6,22.7,325,23.7z"/>
			<path class="st3" d="M408,43.7c-10.6,0.4-17.8-11.2-30-13c-16.5-2.5-28.1,8.5-41,10c3.7-9.2,23.4-14.6,39-13
				C385.6,28.7,405.6,34.6,408,43.7z"/>
			<path class="st3" d="M417,31.7c3-0.4,2.1,3.3,3,5c-1.8-0.1-2.1,1.2-4,1C416,35.3,417.7,34.8,417,31.7z"/>
			<path class="st3" d="M478,42.7c-11.7-5.9-28.9-9-43-4c-3,1.1-6.6,3.3-9,5c-3,2.1-5.4,7.6-10,6c0.5-14.5,21.8-19,38-18
				C463.8,32.3,476.2,34.8,478,42.7z"/>
			<path class="st3" d="M390,48.7c-12.5,4-29.3,4.8-38,15c7-0.4,20.5-7.7,33-6c5.6,0.8,13.4,4.2,14,9c1.5,12.3-14.4,7.7-21,14
				c0.6,4.3,4,1.9,2,7c3.2,1.5,9.3,0,12,2c-5.2,7.5-23.7,1.6-26,12c5.5,1.9,22.7-7.1,28,1c-4.7,5.4-22,1.3-25,11
				c6.4,2.6,13-1.1,21,0c-0.8,6.6-8.3,0.8-10,7c3.6,2.9,8.6-1.4,14,0c2,4.5-0.1,10.4-4,12c4.3,7.6,0,16.7-3,23c0.6,4.5,6.4-1.9,6,4
				c-9.2,2.4-18.9-3.6-22,9c4.3,4.3,11.6-2.2,20,0c3.2,12.1,4.4,31.9-3,43c-1.1,3.7,3.4,2,4,4c-5.3,14.9-22.6,10.5-32,2
				c-1-17.6,2.8-46.1-7-58c-2.8-8,0.6-18.6-1-25c-0.7-2.8-3.3-4.1-4-7c-1.4-5.5,1.3-12.2-3-17c2.8-21.6-5.3-46-6-64
				c8.2-9.2,28-14.9,43-11c3.8-0.2,0.4,0.8,1,3c2.1,1.2,3.9,2.8,6,4C388.6,44.9,386.7,48.1,390,48.7z"/>
			<path class="st3" d="M316,38.7c4.6,0.4,11-1,14,1c-5.4-0.8-6.1,8.4-11,11c-0.2,3.5,4.2,5.5,2,8C310.6,58.8,312.5,44.8,316,38.7z"
				/>
			<path class="st3" d="M339,61.7c-3.1,0.7-2.9-1.7-6-1c-13,9.9-27.8,5.8-46,6c-2-3.3-0.5-10.1-1-15c9.4-0.7,16.3,1.1,25,1
				c2.3,3.3,3.4,7.9,7,10c3.5,0.8,3.8-1.5,7-1c0.1-4.5-2.5-6.2-3-10c2.3-2.1,3.6-5.1,5-8C338.6,39.8,337.1,53.2,339,61.7z"/>
			<path class="st3" d="M410,45.7c5.1,2.2,4.7,10,7,15c-1.1,2.3-6.3,0.4-9,1C408.3,55.8,408.9,52.4,410,45.7z"/>
			<path class="st3" d="M478,49.7c7.9,4.2,1.9,13.4,1,21c-0.7,6.3,1.8,13.2,1,20c-0.2,2-1.8,4.1-2,6c-0.4,4.6,0.7,9.6,0,14
				c-1.3,9-7.7,16.4-9,25c-0.9,5.7-0.2,11-1,17c-1.3,10.7-8.2,19.8-9,28c-1.4,14.3,12.5,32.5-5,40c5.1-10.2,3.3-23.9,0-37
				c-0.4-3.4,1.7-4.3,3-6c-2-2.6-4.1-5.2-9-5c0.4-1.3,1.8-1.6,2-3c-0.2-3.1-5-1.7-8-2c11.3-1.5,18.3-12.1,16-24c1.3-2,4.3-2.4,6-4
				c0.9-7.7-0.6-10.8,0-15c-2.4-3.4-5.7-0.5-12-2c6.2-2.5,13.3-4.1,14-12c-0.5-0.8-1-1.6-1-3h-7c5.6-4,15.2-4.1,18-11
				c-1.6-3.7-3.5-7.2-9-7c1.6-1.5,3.5-5.2-1-5c2.6-1.4,6.4-1.6,8-4c-1.1-0.9-0.3-3.7-3-3c4.9-4-0.7-6.8,5-10c-1.2-2.5-3.4-3.9-6-5
				c0.4-1.3,1.8-1.6,2-3c-0.7-3.3-4.6-1.8-5-3C465.5,49.2,476.8,54.5,478,49.7z"/>
			<path class="st3" d="M495,60.7c2.4,4.6,4.5,9.5,7,14c-8.7,1.7-11,0.2-20,0C481,64.4,484.3,56.5,495,60.7z"/>
			<path class="st3" d="M340,65.7c0.8,4.8-4.4,3.6-3,9h-7c3.9-2.6-3.9-8.5-4-7C326.1,66.3,338.3,59.1,340,65.7z"/>
			<path class="st3" d="M417,67.7c3.4,18.6,3.1,46.6-2,72c-0.6,2.9-1.1,7.5-4,9c-5-3.4-1.8-8.9-2-13c-0.1-2.3-0.9-4.7-1-7
				c-1.1-17.7,3.3-34,1-59c0.4-1.3,1.8-1.6,2-3C414.1,66,414.6,67.7,417,67.7z"/>
			<path class="st3" d="M286,68.7c13.9-0.1,21.9,0,33,2c-0.7,6-6.8,3.8-11,4c-6.8,0.4-12.3-1.6-22-1V68.7z"/>
			<path class="st3" d="M300,104.7c-8.2-6.3-16.5-17.9-14-29c11.7-0.7,20.4,1.6,32,1v9c-6.2,3.9-20.8,1.6-26,1
				C291.7,91.9,298.9,97.7,300,104.7z"/>
			<path class="st3" d="M482,76.7c5-0.7-1.3,3.7,2,4C482.3,84.2,481.4,78.7,482,76.7z"/>
			<path class="st4" d="M502,78.7c0.5,3.1-2.5,3.6-4,2C498.2,78.9,499.7,78.4,502,78.7z"/>
			<path class="st3" d="M503,84.7v9c-9.4-0.1-9.8-1.2-16,0c0.9-1.8,2.8-2.5,2-6c-1.2-4.6-6.2-1.3-7-2
				C486.3,80.4,495.8,86.4,503,84.7z"/>
			<path class="st3" d="M485,86.7c4.2,0.7,0.5,6.2-2,3C483.4,88.4,484.8,88.1,485,86.7z"/>
			<path class="st3" d="M293,89.7c5.2-0.6,18.4-0.4,25,1c-0.7,3.4-1.2,6.6-1,13C304.1,113.5,298.5,96.6,293,89.7z"/>
			<path class="st3" d="M482,91.7c0.9,0.8,2.3,1.1,4,1c-4.5,2.8,0.1,14.7-6,16C480.5,102.9,481.1,97.1,482,91.7z"/>
			<path class="st3" d="M487,95.7c5.7-0.7,8.9,1.1,14,1c-3.7,5.4-6.5,16.7-17,12C484.3,103.7,486,100,487,95.7z"/>
			<path class="st3" d="M273,168.7c-11.3,2-13.1-8.4-25-4c-5.4,2-6.2,7.4-11,7c-8.2-0.6-6.4-12.6-16-14c23.9-6.8,50.3-6.4,74-7
				C290.8,159.9,274.9,157.3,273,168.7z"/>
			<path class="st3" d="M409,156.7h3c-0.5,3.1,1.2,4.1,3,5c-0.8,3.6-3.2-0.1-7,1C408,160.3,409.7,159.8,409,156.7z"/>
			<path class="st3" d="M796,359.7v8c-22.8-32.2-57.8-52.2-84-81c-17.1-12.5-38-21.1-55-32c-6.1-3.9-10.9-9.2-17-13
				c-6.2-3.9-14.1-6.2-21-10c-6.5-3.6-12.5-8.4-19-12c-13.5-7.5-28.8-14-43-20c-14.7-6.2-30.5-11.3-46-16c-12.6-3.8-24.9-5.1-36-7
				c-3-0.5-8.2-0.5-10-4c2.6-5.3,8.4-2.2,12-2c15.2,0.8,26.6,6.3,38,10c50,16.2,92.7,37.8,133,62c27.8,16.7,55.2,31.4,79,51
				C751.2,313.6,774.7,338.7,796,359.7z"/>
			<path class="st3" d="M464,179.7c6.9,2.9,13.1,0.5,20,3c0.8,3.5-1.1,4.2-2,6c-5.9-3.8-10.3-2.3-18-1V179.7z"/>
			<path class="st3" d="M513,188.7c15.4,1,31.7,9.6,47,14c-3.2,2.8-9.8,2.2-12,6c0.3,5.5,2.8,10.9-4,11c-0.5-4.9-4.7-11.9-14-11
				C528.2,198.2,518.6,195.5,513,188.7z"/>
			<path class="st4" d="M232,211.7c3.3,2.4-0.9,5.7-1,8c-18-4-13.6,14.4-21,21c6.3,10.3,19.8-3.3,29,3c2.1,3.3,5.2,5.5,8,8
				c5.3,0.3,9.8,1.6,13,4c-3-0.4-6,0.6-8,0c-8.3-2.4-10.5-11.3-21-12c-7.1-0.5-11.6,4.5-21,3c-1.2-1.5-0.9-4.5-4-4
				c2.2-4.1,6.3-6.4,8-11c-0.2-2.8-1.8-4.2-2-7C214.7,214.5,231.2,222.2,232,211.7z"/>
			<path class="st3" d="M686,271.7c-1.4,3.5-8.7,1.4-14,1c-10-12.7-23.3-15.6-43-15c-2.5-4.2-6.5-6.8-10-10c-4.7-1.6-3.3,0.8-8,1
				c-8-2.3-14.7-5.9-26-5c-3.7,1.5-5.9,6.1-10,8c-2.4,1.1-5.8,0.2-8,1c-6,2.1-12.9,7.8-14,13c-1.7,7.9,3.8,10.6,4,22
				c-3,2.1-6-2.9-9-4c-5.1-0.7-7.1,0.3-12-3c-4,2.3-6.9-0.7-10,0c-7.8,1.7-9.7,12.2-18,10c0-3,3.5-2.5,6-3c4.6-5.1,9.2-10.2,10-19
				c8-6.6,26.5-2.8,24-20c6.9-4.5,15.1-4.3,24-5c5.2-3.4,8.7-11.8,7-19c-1-4.2-4.7-4.9-5-9c8.3-8.1,26.6,6.1,34,11
				c9.7,6.4,19.1,9.7,27,14c9,4.9,16.1,12.1,24,17C668.3,263.5,676.7,268.1,686,271.7z"/>
			<path class="st3" d="M698,291.7c-0.8-4.2,1.9-4.7,2-8c13.5,6.5,20.4,19.6,33,27C719.2,313.7,710.2,296.7,698,291.7z"/>
			<path class="st4" d="M775,343.6c-1.2-1.1-2.3-2.3-3.5-3.4c-1.5,0-3,0-4.5,0c1.2,1,2.3,2.1,3.4,3.1
				C771.9,343.5,773.4,343.6,775,343.6z"/>
			<path class="st4" d="M791.3,344.8c-1.5-1.6-3.1-3.1-4.6-4.7c-3.4,0-6.8,0.1-10.1,0.1c1.2,1.2,2.4,2.5,3.7,3.7
				C783.9,344.1,787.6,344.4,791.3,344.8z"/>
			<path class="st4" d="M326.1,67.6c0,0,0,0.1,0,0.1C326,67.7,326,67.7,326.1,67.6z"/>
			<path class="st4" d="M691,259.7c-13.1-9.1-26.8-16.9-41-25c-36.2-20.7-81.6-44.7-117-57c-13-4.5-25.3-8.1-37-11
				c-8.7-2.2-17.2-3.1-24-9c1.6-17.1,3.8-33.5,14-42c1.5,1.5,5.1,0.9,8,1c4.6-7.1,9-14.4,14-21c4.2-16.7-5.8-26.8-7-36
				c-1.2-8.7,1.1-18.5,2-27c0.9-8.6,0.7-17.6,5-25c5.1-0.1,8.3,1.7,14,1c5.6-14.6,6.5-21.9,6-42c3.1-5.4,10.9-11.2,11-21
				c0-3.4-2.8-7.7-3-12c-0.3-7,2.7-14.9,2-21c-1.2-9.9-7.8-16.4-12-22c0-4.4,0.3-9-1-12c-5.6,0.3-9.5-1.1-13-3
				c-5.3-11.7,2.2-21.3,3-32c1-12.8-3.9-25.7-2-41c-3-1.8-7.9-3.2-11-2c-0.1,5.7,0.3,12.1-1,14c-1.6-5.1-1.9-11.4-5-15
				c-7.8-0.4-10.8-0.3-18-2c1.5,6.5-2.4,7.4-1,9c-5.4-1.5-14.5,1.6-21,0c-0.2-4.2,4.9-3.1,4-8c0.2-13.5-6.9-15.5-12-25
				c-1.7-3.2-2.3-8.3-4-10c-5.8-5.7-19.2-3.6-33-4c-9.4-0.3-19-1.7-27-2c-18.5-0.8-25.8,5.2-31,14c-2.5,1.2-5.9,1.4-9,2
				c-1.3,4-6.3,9.4-2,13c-4.6,1.1-6.5,4.8-6,11c-7.9,1.1-8.5,9.5-13,14c-0.5-7.5,1.5-12.5,3-18c-4.2-1-13,0.5-22,0
				c-2,0.6-0.7,4.7-3,5c0.3-2.3-0.2-3.8-1-5c-4.6-0.4-11,1-14-1c-3.3,6.4-4.4,0.4-10,7c-4.2,11.6,6.7,18.8,8,32c0.5,5.3-1,14.1-1,21
				c0,7.9,0.7,19.6,0,21c-3.5,7.4-19.6,9.3-22,21c-2.1,10.3,3.7,19,3,30c4.7,3.6,3,10.4,5,15c2.8,6.2,11.5,11.3,14,18
				c3.3,8.7,1.5,19.8,1,31c-0.6,14.7-1.4,28.4-1,43c0.2,8.3-2.3,14.4-3,21c-1.3,11.5,1.2,21.9,0,33c3.9,9.8,10.8,16.6,17,24
				c9.3,3.4,22.2,2.5,26-5c0.7-10.7-1.3-24,1-33c3.8,0.2,0.6,7.4,3,9c3.4-0.3,5.7-1.6,10-1c1.3,10.7,5.9,20.1,3,32
				c3.5,7.2,4,17.4,6,26c-15.4,0.6-25.6,0.3-44,0c-24.4-0.4-59.7-3.6-104,6c-5.1,1.1-12.2,1-16,6v5c45.8-11.9,107.1-12.3,162-7
				c4.7,2.8,2.7,7.3,4,13c0.8,3.6,3,7.7,4,12c3.3,13.5,3.7,28,3,44c6.2,17.1,41.7,18.3,48,2c4.6-11.8-1.3-31.5,1-44
				c0.7-3.7,1.5-12.1,9-10c4.7,19.4-1.6,46.7,14,57c9.5,6.3,28.6,6.3,36-1c1.9-2.1,1.6-6.4,4-8c3.6,0.5,5.8,1.6,9,0
				c3.7,4.3,10.3,5.7,17,7c6.9,6.9-1.5,17.3-5,20c-0.5,0.4-1.5,1.5-2,2c-8.3,8.1-15.3,7-23,3c-5.7-2.9-9.5-4.3-15-6
				c-3.9-0.9-1.6,4.4-6,3c-11.5-0.6-16.7-2.7-25,6c-0.4,6.9-2.2,12.4-8,14c0.5-5.8-4.2-6.5-5-11c1.5-2.8,2.7-6.6,1-10
				c-10.2-5.6-17.9,6.1-28,7c-2.1,3.2-2.6,8.1-7,9c-7.4-1.5-18.1-6.9-27-10c-5.6-24.7-32.4-23.5-50-17c-3.6-6-10.1-9.2-14-15
				c3.1-4.1,1.1-7.2,0-12c7.8,1.6,2-4.9,6-6c8-0.6,15.9-2.7,24-2c7.5,0.7,14.9,5.9,21,2c-2.9-7.8-5.9-15.5-15-17
				c6.3-10.3,22.9,0.4,31-6c2-6.6-3.2-11.2-6-16c1.7-2,7-0.4,7-4c-30.3-5.2-54-5.4-76-5c-11.4,0.2-22.5,3.2-35,4
				c-21.3,1.3-38.1,7.8-54,9c3.4,5.1,10,3.2,13,3c7.3-0.6,14.7-7.1,22-6c9.5,1.4,12.1,18.2,22,17c4.2-0.5,6.1-7.2,11-9
				c10.5-3.9,11.6,5.4,22,4c4-1.7,3.7-7.6,8-9c3.2-0.8,7.4-0.6,10-2c3.4-0.6,2.2-5.8,6-6c18-5.5,49.1-3,49,19
				c-12.1,3.2-32.9-5.2-34,10c6.5,2.2,12.9,4.4,14,12c-15.9,0.1-38.6-6.8-49,8c0,3.9,2.4,6.8,0,13c4.7,6,12,9.4,16,16
				c8-2.7,25.2-6.5,36-3c9.6,3.1,10.7,12.7,13,20c10.3,3.7,19.5,8.5,30,12c6.6-9.4,15.7-16.3,30-18c0.3,8.4,1.3,15,7,20
				c7.7-0.3,9.9-6.1,10-14c5.4-7.9,23-3.6,34-6c6.7,2.4,11.2,8.5,19,9c14.8,1,29.8-15.2,26-28c-2.5-8.7-15.2-5.8-21-13
				c-4.5,1.7-8.4-0.3-10-1c0.8-7.1-1.2-11.4-1-18c6.7-1.4,10.7-4.1,17-1c3.5-0.5,2-6,5-7c7.7-1,10.8,2.5,18,2c7,6.4,14.7,12,22,18
				c2.7,2.2-1.4,5,1,7c3.5,2.2,6-0.7,10,1c3.3,2.1,3.4,7.2,6,10c7.7,0.7,5.3-8.1,6-12c7.5-3.3,20.4-4.3,26,1c-0.8,3.5-6.1,2.6-6,7
				c2.6,2.4,7.2,2.8,8,7c-1.4,7.5-1,12.6-5,16c-0.8,0.7-4.8,1.8-7,2c-1.8,0.2,0.5-1.9-1-2c0.9,0.1-3.3,1.1-3,1
				c-4.4,1.1-8.8,2.8-12,3c1.6,0.3-0.1,1.4-2,1c-2.7,4-2.3,11-7,13c-6.5,2.1-16,2.9-19,7c-2.2,3-0.6,8.8-3,13
				c-3.4,6.1-8.4,5.3-13,11c0.4,3.6,1.6,6.4,5,7c7.2-3.2,6.5-10.5,14-13c10.9-3.6,22.1,4.3,33,6c2.4-9.3-4.4-12.9-4-23
				c6.4-10.2,21.3-12.1,31-19c11.8-1.2,18.6,2.7,27,5c3-0.7,4.4-3,9-2c2.1,2.6,3.6,5.8,4,10c18.3-0.1,39-0.7,46,13
				c6.2,0.8,11.1,2.9,19,2c2.7,2.3,5.8,4.2,7,8c1.2,4.6-4.2,5.6-1,9c15.1,8.5,26.1,21.2,46,25c6.4,7.7,16.4,15,24.9,22.6
				c1.5,0,3,0,4.5,0C752,322.1,730,306.5,712,286.7c-17.1-12.5-38-21.1-55-32c-6.1-3.9-10.9-9.2-17-13c-6.2-3.9-14.1-6.2-21-10
				c-6.5-3.6-12.5-8.4-19-12c-13.5-7.5-28.8-14-43-20c-14.7-6.2-30.5-11.3-46-16c-12.6-3.8-24.9-5.1-36-7c-3-0.5-8.2-0.5-10-4
				c2.6-5.3,8.4-2.2,12-2c15.2,0.8,26.6,6.3,38,10c50,16.2,92.7,37.8,133,62c27.8,16.7,55.2,31.4,79,51c17,14,33.7,30.6,49.5,46.5
				c3.4,0,6.8-0.1,10.1-0.1C757.4,310.6,725,283.3,691,259.7z M273,168.7c-11.3,2-13.1-8.4-25-4c-5.4,2-6.2,7.4-11,7
				c-8.2-0.6-6.4-12.6-16-14c23.9-6.8,50.3-6.4,74-7C290.8,159.9,274.9,157.3,273,168.7z M700,283.7c13.5,6.5,20.4,19.6,33,27
				c-13.8,3-22.8-14-35-19C697.2,287.5,699.9,287,700,283.7z M608,226.7c9.7,6.4,19.1,9.7,27,14c9,4.9,16.1,12.1,24,17
				c9.3,5.8,17.7,10.4,27,14c-1.4,3.5-8.7,1.4-14,1c-10-12.7-23.3-15.6-43-15c-2.5-4.2-6.5-6.8-10-10c-4.7-1.6-3.3,0.8-8,1
				c-8-2.3-14.7-5.9-26-5c-3.7,1.5-5.9,6.1-10,8c-2.4,1.1-5.8,0.2-8,1c-6,2.1-12.9,7.8-14,13c-1.7,7.9,3.8,10.6,4,22
				c-3,2.1-6-2.9-9-4c-5.1-0.7-7.1,0.3-12-3c-4,2.3-6.9-0.7-10,0c-7.8,1.7-9.7,12.2-18,10c0-3,3.5-2.5,6-3c4.6-5.1,9.2-10.2,10-19
				c8-6.6,26.5-2.8,24-20c6.9-4.5,15.1-4.3,24-5c5.2-3.4,8.7-11.7,7-19c-1-4.2-4.7-4.9-5-9C582.3,207.6,600.6,221.8,608,226.7z
				 M560,202.7c-3.2,2.8-9.8,2.2-12,6c0.3,5.5,2.8,10.9-4,11c-0.5-4.9-4.7-11.9-14-11c-1.8-10.5-11.4-13.2-17-20
				C528.4,189.7,544.7,198.3,560,202.7z M480,108.7c0.5-5.8,1.1-11.6,2-17c0.9,0.8,2.3,1.1,4,1C481.5,95.5,486.1,107.4,480,108.7z
				 M484,80.7c-1.7,3.5-2.6-2-2-4C487,76,480.7,80.4,484,80.7z M483,89.7c0.4-1.3,1.8-1.6,2-3C489.2,87.4,485.5,92.9,483,89.7z
				 M484,108.7c0.3-5.1,2-8.7,3-13c5.7-0.7,8.9,1.1,14,1C497.3,102.1,494.5,113.4,484,108.7z M503,93.7c-9.4-0.1-9.7-1.2-16,0
				c0.9-1.8,2.8-2.5,2-6c-1.2-4.6-6.2-1.3-7-2c4.3-5.3,13.8,0.7,21-1V93.7z M485,81.7c0.3-0.6,2.5-3.9,0-4c2.5-0.5,12.3,0.3,18,0
				C501.9,87.7,492.2,80,485,81.7z M502,74.7c-8.7,1.7-11,0.2-20,0c-1-10.3,2.3-18.3,13-14C497.4,65.3,499.5,70.2,502,74.7z
				 M482,31.7c-1.3-9.7-6.5-18.1-6-27c0.2-2.8,2.4-4.5,3-7c2.1-9.6-0.9-20,1-29c5.3-0.1,8.9,0.1,11,1c-2,10.7,0.1,16.2,3,24
				c1.2-0.3,3.8-4,5-1c0.2,2.5-1.5,3.1-3,4c-0.1,4.4,3.3,5.4,4,9c-2.1,16.3-3.5,33.8-6,52c-3-1.4-3.6,0.5-8,0
				C479.9,50.7,483.2,41,482,31.7z M382,17.7c-13.7-1.5-27.8,7.4-37,9c-1.1-4.1,3.2-10.6,6-14c15.2-7.6,34.9-5.9,54-3
				c-15.7-6.9-39.4-6-55,2c-4.9-9.5,5.2-11.9,4-21c14.1-15.7,38,3.1,47,14c-3.4-9.2-16.9-17.1-29-21c11.4-4,32.7-2.6,40,12
				c0-6.3-8.6-9.4-8-13c18.6,0.9,30.8,0.8,51,1c-1.6,3.7,2.3,9.4,7,10c-3.2,6.7-11.8,4.2-19,5c-10.7,1.2-22.1,2.5-28,10
				c11.1-7.9,35.3-8,49-10c2.1,2.2,0.8,6.7-1,8c5.6,6.1,5.2,23.1,10,26c-17.3-5.4-35.7-6.3-52,3c-0.8-6.5-2.3-12.4-2-20
				c-1.7,7-2.1,15.2-4,22c-3.5-1.2-3.1-6.3-3-11c-4.3,0-2.7,6-3,10c-13.2-8.6-36.5-15.7-55-10c8.4-7.4,27.8-8.9,40-4
				C390.7,20.2,386.1,18.2,382,17.7z M325,23.7c0.1-2.2,4.2-0.4,6-1c-0.2,3.5-0.8,6.5-5,6C326.8,28,328.6,22.7,325,23.7z M305,21.7
				c-2.9,0.5-8.2-2.2-7,4c0.6,5.2,6.7,2.6,10,3c8.2,1,17.2,1.6,22,2c0.6,7.9-10.5,4.2-17,5c-1.8,4.7-1.9,12.3-3,15
				c-7.5-1.1-10.9,0.2-21-2c-1.6-17.6-1.7-38.3,1-54c14.1,0.1,30.1-0.4,40,1c3,8,5.1,15.5,1,25C318.8,20.3,311.3,20.5,305,21.7z
				 M323,27.7c-4.6,1.5-12-1.8-19-2c4.8-4.7,8.7-2,19-3C321.8,24.2,319.5,26.9,323,27.7z M302,25.7c-1.4,4.4-4.1-4.7,0-3
				C301.3,23.5,300.4,25.4,302,25.7z M321,58.7c-10.4,0.1-8.5-13.9-5-20c4.6,0.4,11-1,14,1c-5.4-0.8-6.1,8.4-11,11
				C318.8,54.2,323.2,56.2,321,58.7z M300-69.3c13,1.9,20.7-3.9,26,9c-12.1-0.9-18,1.7-24-3c0.3,6.2,0.3,6.8,0,13
				c-2.8-3.8-2.9-10.4-5-15c2.1-2.2,3.2,0.1,5,1C301.6-66.2,299.8-66.8,300-69.3z M293-125.3c6.7-11.5,24.3,0.8,27,9
				c1.6-9.2-13-11-18-17c3.9-3.7,10.7-8.5,15-8c10.6,1.3,12.5,21.2,18,29c-11.4,2-9.6,13.8-10,25c-3.3,1.2-3.1-0.1-8,1
				C317.5-101.6,309.1-120.5,293-125.3z M289-163.3c4.4,2.3,2.6,10.7,3,17c2.5-0.9-0.3-7,2-8c7.1-1.7,17.9-1.2,24-1v10
				c-10.2-1.2-17.4,10.1-26,4c-2.1,5.4,2.9,3.5,6,3c-2,3-3.3,6.7-9,6C287.7-139.9,289.8-151.1,289-163.3z M315-97.3
				c0.2,4.4-3.4-0.9-4-2c-10-5.7-12.4-19-26-21C298.6-132.5,311.8-108.6,315-97.3z M356-124.3c4.1-2.2,1.5-12,1-16
				c5.3,4.5,5.8,13.8,2,20c-1.2-0.2-0.8-1.8-1-3c-0.7,4.6-5.4,4.3-10,7c-5.6-8.8-4.3-18.8-7-31C353.9-152.5,359.4-137.5,356-124.3z
				 M352-149.3c4.2,0.2,3.7,5,6,7C355.7-140.4,353.3-146.9,352-149.3z M385-139.3c-0.1-1.8-3.4-0.6-4-2c8.6,1,25.7,0,35-1
				c-2.1,3.9-7.8,4.2-6,12c-8.3,2.9-11.4,5.4-23,4c-6.2,4.7,1.7,11.1,0,16c-3.5,1.7-6.2,0.3-12,1c-1.9,2.9-1.1,10,0,13
				c12.4,1.6,29.5-1.5,32,10c-10-2-19.9-4.1-28-8c-2.9,0.1-1.8,4.2-2,7c-3.3,0.3-4.4,2.9-9,2c0.7-7.9-1.8-19.1,2-24
				c-5.3-0.3-3.8,6.2-11,4c3.1-6.1,6.5-12.8,10-19c3.2-5.7,5.8-13.6,13-15c-6.2,8.9-1.3,19.3-6,29
				C383.4-115.6,376.8-134.8,385-139.3z M363-187.3c1.7-1.7,4.1-2.6,4-6c2.7,4,1.7,11.6,4,16c-3.1-0.7-2.9,1.7-6,1
				C367.5-178.5,371-188.5,363-187.3z M358-191.3c-3.3-0.4-4.4-2.9-7-4c1.4-2.3,7-0.4,10-1C360.1-194.5,356.9-195,358-191.3z
				 M360-204.3c1.3-1.2,1.6-0.4,3,0c-0.2,1.1-2,0.7-2,2C360-202.3,360.2-203.5,360-204.3z M360-194.3c4.1,2.2,0.7,13.1-1,16
				C357.1-181.9,359.5-189.8,360-194.3z M363-183.3c1.2-3.2,1.1,2.7,1,4C362.9-176.1,362.9-182,363-183.3z M365-198.3
				c6.1,0.2,21.7-0.4,25,6C384.1-192.9,372.7-196.3,365-198.3z M398-228.3c9.7-1.4,18.9,0.3,25,5c-15.7-7.4-39.9,0.7-50,11
				c1.8,6.9-3,7.3-3.9,11.5c0,0.2,0,0.3-0.1,0.5c0-0.2,0.1-0.3,0.1-0.5c0.1-1.8-2.5-4.6-2.1-6.5C367.9-212.4,385.6-226.5,398-228.3z
				 M371-230.3c9.4-4.5,22.1-0.1,34-1c1.8,1.9-5.2,0.9-6,1c-11.4,2-21.5,10-30,16C368.6-220.7,370-225.3,371-230.3z M435-230.3
				c4.9,1.2,5.5,12.9,0,14C433.7-220,437.4-224.6,435-230.3z M443-210.3c0.1,4.6,2.9,6.4,2,12c-5.8-5.5-7.6-15.1-15-19
				C434.8-219.5,437.5-207.6,443-210.3z M446-184.3c1.3-1.4,4.3-1,7-1c0.8,4.8-1.6,6.4-1,11c-4.4-0.7-4.4,2.9-8,3
				C444.8-175.5,446.6-178.7,446-184.3z M476-144.3c-9-1.3-4.4-14.3-7-23c-2.6-8.5-8.1-11.1-12-17c9.4,0.2,13.5-2.1,23,0
				C473.6-168.8,477.6-163.1,476-144.3z M495-77.3c-3-4.8,1.4-9.6,3-13c-3.9-1.9-3.4,9.2-9,9c-4.7-4.9,1.5-12.1,3-17
				c-4.7,1.6-2.9,9.7-8,11c-3.2-13.7,4.2-25,14-29C495.6-105.8,506.7-82.3,495-77.3z M502-86.3c-0.3-2.4-1.6-3.8-1-7
				c6.8-0.9,13.2-2.2,21-2C518.5-89.8,505.6-88.4,502-86.3z M510-80.3c-3.6,0.5-4.6,0.7-9,2c-0.3-2.3,2.9-1.1,3-3
				C506.1-81.5,515.5-81.3,510-80.3z M524-78.3c2.2,0.8,3.1,5.4,6,3c-0.7,3.1,1,3.6,1,6c-11.1-6.3-20.2-10.8-32-3
				C500.2-78.3,515.7-81.2,524-78.3z M501-32.3c-0.6,8.8,0.9,20.3-5,23c-8.6-5.5,1.2-20.1-7-27c-0.8-9.5,5.3-12,4-22
				c1.8,0.6,5.9-1.2,6,1C502.9-51.6,501.8-42.8,501-32.3z M500-56.3c6.3-3,13.6,1.8,21,1c0.4,4.6,2.4,7.6,3,12c-5.6-1-13.2-1.3-20-2
				C503-49.3,502.2-53.5,500-56.3z M481-66.3c-3-1.6-6.7-2.7-9-5c-0.7-6.7,1.2-10.8,3-15c6.7,7.3,18.8,9.2,20,22
				c-0.3,3.4-4.5,2.8-6,5c-0.7,3.7-1.1,7.6-2,11C482.4-51.7,484-61.4,481-66.3z M485-34.3c-2.4,0.4-2.2-1.8-5-1c-0.1-5.5,0-9.9,1-12
				C484.9-45.4,486.8-38.8,485-34.3z M374-32.3c23.7-2.8,57.6,2.2,82,1c-0.3,5,3.8,5.5,3,11c-28.5,1.4-62-4.3-89,0
				c-4.2-3.5-13.3-5.6-17-4C355.9-28.3,366.5-31.4,374-32.3z M357-30.3c0.4,2.8-3.7,0.9-4,3C350.1-28.7,354.2-31.3,357-30.3z
				 M459-16.3c1.4,2.3,2,5.3,3,8c-4.4,0.8-3.4-3.9-6-5C456.1-15.2,459.3-14,459-16.3z M461-24.3c8.3-1.7,5.4-14.6,8-22
				c3.7,7.6,0.5,23.8,0,38c4.1-3.2,2.6-9.6,3-20c0.3-6.8,1.1-10.9,1-18c1.4-0.6,2.4-1.6,3-3c1.6-0.3,1.7,0.9,3,1
				c-2.9,15.1-1.2,34.8-5,49C464.8-2.7,463.1-13.8,461-24.3z M464-50.3c1.9,7.6-0.5,15-4,20c-5-0.7-3.4-7.9-6-11c-3,1.2,1.1,3.4,0,6
				c-31.4,4.4-43.2-1.7-78,0c2.4-3.3,8-3.4,12-5c1.4-4-2.2-3.2-2-6c3.1-1.9,3.7-6.3,7-8c22-0.8,36.1,1,53,6c-11.3-8.1-29.6-7.1-48-8
				c-7.8-0.4-19.2-2.4-22-1c-4.4,2.2-5.6,9.1-10,10c-4.8,0.2-5-6-10-6c-4.1,0-8,2.3-8,7c0.1,12.5,25.3,4.9,37,4
				c-11.1,5.6-18.3,11.4-32,10c-4.5,6.5-7.2,14.8-17,16c0.3-16.3-1.8-30.2-1-47c2.3,1,4.9,1.8,8,2c-0.2,3.2-2.3,4.4-2,8
				c10.3-2,14.1-10.6,18-19c6.6-2.4,14.7-3.3,20-7c4.2,0.2,8.4,0.4,9-3c3.7,3.2,8.3,2.1,13,3c8,1.6,16.2,7.7,24,9
				c9.3,1.6,19.8-1.4,26,6h10c-1.5,4.1-8.9,2.4-12,5c0.2,3.9,0,7.4-1,10c5.5-1,5.9-4.8,5-10c11.3,0.5,15.9,0.5,23-3
				c0.5,4.4,3.2,3.4,3,7C478.7-49,471.6-49.9,464-50.3z M370-48.3c1.2-4.1,6.6-8.4,12-5c-1.2,3.1-3.3,5.4-6,7
				C373.1-46,372.9-48.6,370-48.3z M376-44.3c-3.4,2.3-8.4,2.9-14,3C361.8-47.7,373-46.9,376-44.3z M383-54.3c0.4-2.2,4.9-0.4,7-1
				c-3.8,3.9-4.4,10.9-11,12C378.9-47.9,387.8-51.4,383-54.3z M355-50.3c1.3-2.8,4.8,0.5,5,2C362.1-45.9,357.4-50.8,355-50.3z
				 M354-41.3c0.2-0.8,1-1,1-2h2C357.5-41.2,355.6-41.4,354-41.3z M351-46.3c-2.5-0.2-0.3-3.4,0-4C354-49.6,350-48.2,351-46.3z
				 M348-113.3c3.6-0.4,5.3-2.7,10-2c-1.5,10.5-6,18-14,22C341.3-100,349.3-104.6,348-113.3z M379-91.3h3c0.3,2.3-0.2,3.8-1,5
				c-0.8-0.5-1.6-1-3-1C377.9-89.1,379.2-89.4,379-91.3z M386-83.3c-1.8,2.6-7.7,1.6-11,0C377.4-87.3,381.6-83.1,386-83.3z
				 M383-85.3v-5c3.5-0.1,5.8,0.9,5,5C386.1-83.4,386.2-85.9,383-85.3z M377-79.3c-5.1,0.9-7,0.8-10-2C368.2-85,377.6-83.6,377-79.3
				z M369-77.3c-4.9-0.3-9.3,2.7-12-1C359.2-81.1,368.9-83.7,369-77.3z M352-64.3c-0.1,5.5-4.8,6.5-9,8c1.1-3.2,2-6.6,2-11
				c3.1-0.7,3.6,1,6,1C350.8-65.1,351.2-64.5,352-64.3z M346-69.3c1.9-2.9,10-5,10,1C353.3-66.1,348.7-68.4,346-69.3z M353-76.3
				c2.3-2.2,6.2-0.4,6,3C356.4-72.3,352.5-71.7,353-76.3z M365-84.3c-8.7,0-13.8,8.8-18,10c1.1-4.2,3.2-7.5,4-12c-1-2.7-6.1-1.2-6-5
				c7.1-3.6,8.5-12.8,20-12V-84.3z M339-91.3c-3-3,1-13-2-16c0.7-2.9,6.4-4.1,9-2C343.6-103.4,342.6-96,339-91.3z M339-81.3
				c-0.5-4.7-2.3-9.3,4-9C344.2-88.2,342.4-82,339-81.3z M345-87.3c2.4-0.4,2.2,1.8,5,1c-2.2,6.5-4,19.2-13,13
				C338.5-79.1,343.9-81.1,345-87.3z M342-63.3c-3.5,0.8-3.8-1.5-7-1v-7C341.2-71.6,343.8-68.3,342-63.3z M391-83.3v-3
				c1.9-2,4.7-0.5,7,0v4C396.6-80.9,393.1-82.5,391-83.3z M399-82.3v-3h3v3H399z M390-116.3c11.1,8.2,18.8,19.9,26,32
				c-10.1-3.5-16.9-18.2-27-25C390.4-110.6,390-113.6,390-116.3z M403-124.3c0-3,3.5-2.5,6-3C409.4-123.9,404.7-125.6,403-124.3z
				 M409-123.3c-0.2,1.4-3,0.3-3,2C403.5-121.7,407-124.2,409-123.3z M407-119.3c7.5,8.5,30.7,1.3,39,9c-2.4,3-6.1-1.2-9-1
				c-6.3,2-7.7,9-7,18c4.7,5.3,13.4,6.6,24,6c-0.7,4.4,1.7,5.6,1,10c-15.6-2.7-48.7-3.3-44-29c-0.5-3.5-6.5-1.5-10-2
				c-2-3-3.8-6.2-7-8C396.6-119.1,402.3-118.7,407-119.3z M416-139.3c3.9-1.3,2.6,2.7,4,4c5.8-0.4,10.2,0.4,15,1
				c1.6,4.6-0.2,11.8-1,17c-5.5,0.7-13.5,1.2-23-2C409.3-125.9,411.8-135.4,416-139.3z M441-124.3c7.6-1.2,4.9,7.7,10,9
				c1.8-0.2,2.3-1.7,2-4c6.5,2.7-0.4,7.7-2,11c-3.8-3.5-9.2-5.5-14-8C439.8-117.5,441.4-119.9,441-124.3z M452-117.3
				c-3.9,0-5.7-5.5-4-8C453.2-126.5,451.9-121.2,452-117.3z M468-105.3c-2,3-7.7,2.1-10,0C456.7-114.6,468.1-111.1,468-105.3z
				 M460-117.3c1.5,1.9,5.2,1.5,5,5C463.4-114.1,460.4-114.4,460-117.3z M466-113.3c4,3.2,14.3,9,8,16
				C475.6-103.5,468.2-107.7,466-113.3z M474-65.3c-0.6,3-4.5,2.8-6,5C465.2-62.8,471.6-64.7,474-65.3z M465-62.3
				c0.4-1.2,1.3-2.1,3-2C467.6-63.1,466.7-62.3,465-62.3z M464-64.3c-1.4,2,3.1-5.8,7-5C468.8-67.5,466.9-65.4,464-64.3z M442-77.3
				c3.1-0.7,3.6,1,6,1c-0.8,1.9-1.7,3.7-2,6c-2.4-1.3-1.9,0.1-5-1C441-73.7,442.7-74.2,442-77.3z M435-71.3v-7c2.5-0.1,4.8-0.2,6,1
				C440.9-73.4,439.8-70.5,435-71.3z M455-74.3c-0.6,3.7-3.4,5.2-7,6C444.4-72.2,451-78.2,455-74.3z M461-71.3
				c-1.9,5.2-4.6,6.2-11,5C453.9-67.9,456-76.8,461-71.3z M455-95.3c4.5,2.1,5.8,7.5,13,7v16C455.6-71.9,456.2-84.5,455-95.3z
				 M466-67.3c-3-0.3-3.9,3.2-6,1C460.4-69.6,465.5-72.1,466-67.3z M457-112.3c-0.5-2.1,1.4-1.9,3-2
				C459.6-113.1,458.7-112.2,457-112.3z M469-94.3c-0.5,3.5-5.8,1.6-8,1c-0.1-5.5-6.9-8.7-11-7c2.8,1.5,3.4,5.2,3,10
				c-11,1-13,1-22-4c-0.2-2.5,1.5-3.1,3-4c-0.7-0.9-1.8-1.5-3-2c0.3-1.4,2.5-0.8,4-1c-4.8-3.8,0.3-0.9,0-7
				C452.5-108.8,460.3-103.8,469-94.3z M414-76.3c-5.6-0.1-4.4-2.4-4-7c2.3-0.3,3.8,0.2,5,1C415.7-79.2,413.3-79.4,414-76.3z
				 M416-82.3c3.2-0.6,4.7,0.7,7,1c-1.4,1.3-1,4.3-1,7c-2.8,1.2-4.2,0.2-7-1C415.3-77.6,416.6-79.1,416-82.3z M424-80.3h5v5
				c1.8-1.2,0.2-5.8,5-4v7c-6-2-4.5,0-12,0C422.5-75.1,423.5-77.5,424-80.3z M409-84.3c0.7,3.1-1.7,2.9-1,6c-1.2-0.8-2.7-1.3-5-1v-6
				C405.4-85.3,405.9-83.6,409-84.3z M480-104.3c3-7.1,11-15.2,17-17c-7.4,8.9-17.2,15.5-17,32c-5.2-1.2-1.2-6.6,0-10
				C480.5-100.8,479.4-102.9,480-104.3z M484-137.3c5.2-1.9,14.3,1,21,1c-0.5,5.8,2.4,8.3,3,13C497.9-125.9,493.4-134,484-137.3z
				 M505-139.3c-9.5,1.1-14-1.3-24-1c-1.6-5.8-0.4-10.6,0-17c10.9,0.7,20.2,1.4,29,2C508.8-149.5,507.4-143.9,505-139.3z M485-132.3
				c-2.1,5.9-10.4,5.6-11,13c4-6.2,17.2-16.8,22-5c-7.6,3.7-12.4,10.2-17,17c-9.5-6.1-19.4-12-27-20c-6.6,0.6-5,0.3-11,1
				c-3.3,1,0.3,4-3,6c-2.4-3.5-0.2-10.8,1-14c-2.7-4.9-11.5-2.1-17-3c-1-2-2-4-3-6c8.4-0.6,19.7,1.7,20-7c3.1,1.6,3.8,5.5,7,7
				c12.3,0.3,15.6-0.3,24,2c-1.8,5.6-8.6,6.1-10,12C465.3-135,477.3-146.4,485-132.3z M466-149.3c-8-0.6-12.1,2.7-20,0
				c1.7-1.6,5-1.7,6-4c-0.9-7.8,1.4-17.7,4-25C464.8-174.1,466.4-162.7,466-149.3z M447-171.3c5.1,2.8-0.9,10.8,1,17h-14
				C438.9-159.4,441-167.3,447-171.3z M422-151.3c-1.1-0.2-0.6-1,0-1c9.7-7,16-17.3,18-32C442.2-169.1,432.9-156.8,422-151.3z
				 M428-194.3c-1.3-0.7-1.9-2.1-2-4C429-199.3,427.8-196.1,428-194.3z M427-201.3c-0.9-1.1-3.7-0.3-3-3
				C426.2-204.5,427.2-203.5,427-201.3z M420-210.3c1.5,0.5,2.5,1.5,4,2C423.4-205.9,419-207.8,420-210.3z M426-214.3
				c-0.5-2.9,4.9,4,7,5C430.7-207,428.3-213.3,426-214.3z M440-189.3c-4.2-4.2-3.5-13.2-8-17C435.7-206.8,439.6-195.7,440-189.3z
				 M433-220.3c-8.6-2.4-13.2-8.8-23-10c5.3-1.6,15,1,23,0C433.2-227.1,435.3-222.9,433-220.3z M416-147.3c7.2-0.2,13.3-3.1,20-3
				c-2.2,4.5-9,3.4-13,4c-10.9,1.7-25.7,3.8-34,2C390.1-152.3,412.2-147.2,416-147.3z M383-99.3c-2.6,0.5-2-7.2-4-4
				c-2.8-0.4-0.1-3.1,2-2C380.7-102.4,383.3-102.2,383-99.3z M342-132.3c-2.4-4.9-8.1-6.6-8-14h5C340.1-141.7,341.3-137.3,342-132.3
				z M346-116.3c-2.9,1.5-6.6,2-9,4c-5.3-9.7-9.7-20.3-15-30c2.7-1.3,5.6-2.4,10-2C337.8-136.1,342.9-127.2,346-116.3z M290-35.3
				c3.7-0.7,4.3,1.7,8,1c3-1,2-6,3-9c2.2-0.2,0.5,3.5,1,5c2.3-2,0.4-8.3,1-12c7-1.5,12.9,0.6,25,0v21c-8.2,1.3-15.1,0.4-24,0
				c0.2-3.2-1.8-4.2-1-8c-2.5,11.8,1.2,29.9-14,29C289.9-16.3,290.2-24.2,290-35.3z M288-37.3c1.9-3.1,1.9-8.2,4-11
				c3.2-0.2,4.2,1.8,8,1c-1,3.3-0.5,8.2-2,11C293.6-35.5,292-37.6,288-37.3z M301-48.3c0.7-2.8,1.2,2.3,1,3
				C301.5-43.3,300.1-44.5,301-48.3z M304-53.3v-5h24v6C318.6-52.4,309.7-51.9,304-53.3z M328-25.3c-0.7,5.9-6.4,3-9,3
				c-4,0-8.4,0.2-15,0v-5C314.2-27.1,322.1-27.9,328-25.3z M303-20.3h23c-0.4,4.6-2.5,7.5-5,10c-11.1-1-12.4,0.1-22-1
				C299.6-15,301.8-17.2,303-20.3z M329-49.3c1.2-0.2,1.8,0.2,2,1c0.7,12.3,1.4,24.6,1,38h-7C330.2-19.5,329-34.9,329-49.3z
				 M329-66.3c-4.4-1.9-10-5.8-8-11h4C323.2-70.5,330.5-72.8,329-66.3z M298-61.3c-0.2,4.8,1.3,8,2,12c-4.4,0.5-5-1.4-8,0
				c-0.6-4.4-2.6-7.4-3-12H298z M290-55.3c3.2,3.7-1.8,10.2-2,15C282.9-41.3,288.2-57.4,290-55.3z M329-92.3c-0.3-5-2.1-9.6,0-13
				c1.9-0.1,3.3-0.7,4-2c1.3,0.4,1.6,1.8,3,2c-1.7,12.2,1.4,18.9-1,32C327.6-73.6,329.5-85,329-92.3z M350-23.3
				c3.3,2.1,10.9-0.2,14,2c-0.5,5.1-7.2,4.1-11,6c-4.2,6.5-10.4,10.9-18,14C328.5-13.4,345.7-15.7,350-23.3z M337,3.7
				c0.8-3.2,2.8-5.2,6-6C343.6,2.3,340.5,3.2,337,3.7z M338,9.7c6.1-5.2,8.7-13.9,14-20c2.7,4.7-3.6,9-5,13c0.6,2.1-1.2,6.6,1,7
				c-5.8,7.2-1.3,24.7-14,25C332.7,23.7,339.2,20.6,338,9.7z M417,31.7c3-0.4,2.1,3.3,3,5c-1.8-0.1-2.1,1.2-4,1
				C416,35.3,417.7,34.8,417,31.7z M410,45.7c5.1,2.2,4.7,10,7,15c-1.1,2.3-6.3,0.4-9,1C408.3,55.8,408.9,52.4,410,45.7z M416,49.7
				c0.5-14.5,21.8-19,38-18c9.8,0.6,22.2,3.1,24,11c-11.7-5.9-28.9-9-43-4c-3,1.1-6.6,3.3-9,5C423,45.8,420.6,51.3,416,49.7z
				 M465,7.7c2.1-4.2,1.7-6.5,0-11c8.5,5.6,6.6,15.1,9,24c1.4,5,6.2,8.9,5,15C467.9,29.5,473.2,16.4,465,7.7z M518,1.7
				c-9.6-0.6-10.7,0-20-2c-0.7-5,4-4.7,3-10c8.1-0.8,13.5,1.2,21,1C522.1-4.2,520-1.3,518,1.7z M504-12.3c-1.7-0.4-3.6-0.4-3-3
				c10,0.1,14,0.1,22,2C522-11,510.9-10.8,504-12.3z M523-16.3c-10.2-0.1-9.4-1.2-21-1c-0.2-7.5,0.5-14.2,2-20
				c5.9,1.4,13.5,1.2,20,2C524.3-26.6,523.6-22.1,523-16.3z M503-39.3v-3c5.7-0.8,19.5-1.7,22,4C518.2-36.4,508.7-38.6,503-39.3z
				 M531-45.3c-2.8-0.8-2.6,1.4-5,1c0.1-1.4,0.2-2.8-1-3c0.8-3.2,2.8-5.2,6-6c-1.3-4.2-3.3,0.9-7,0c-1.8-3.4,0.2-6.5,2-9
				c-4.1,1.5-5.7,5.6-13,4c-1.2-1.2-1.1-3.5-1-6c-3.3,0-2.4,4.2-5,5c-3.9-1.7-8.8-2.5-8-9C513.2-84.8,543.6-64.6,531-45.3z
				 M525-94.3c-0.8-2.5-1.3-5.4-1-9c8.2,4.3,11.6,18.1,9,30c-4-4-9.1-6.9-16-8c2.6-2.5,9.2-0.6,11,1c-1.3-6.2-11-3-20-3
				C512.9-87.7,521.8-88.2,525-94.3z M521-116.3c-0.3,8.2,0.4,13.9,1,19c-7-1.1-12.7,1.6-22,2c-0.3-8.7,0.8-18.8-1-26
				C507.2-120.5,513.5-117.8,521-116.3z M495-194.3c3.1,4.2,1.4,13.3,6,16c7-1.8-0.8-16.1,6-16c3.9,3,1.7,9.1,2,14
				c0.5,7.3,1.7,15.6,1,23c-10.8-0.5-20.5-1.3-29-2c-0.8-10.7,8.3-15.4,7-25c-0.7-5-5-4.5-5-11C487.4-195.3,492-195.6,495-194.3z
				 M484-190.3c0.9,0.8,0.6,2.7,2,3c0.3,8-0.1,15.2-6,17c-0.3-7.6,6.4-12.7,0-18c-16.9-1.1-30.2,0.8-49,4
				C444.1-190.3,466.6-191.9,484-190.3z M445-219.3h4c3.1,5.6,7.1,10.2,7,19c-4.5-0.2-4.2,4.5-4,9h-6c-0.8-1.9-1.7-3.7-2-6
				c4.2,2.5,5.1-1.6,8-3c-0.7-3.3-1.6-6.4-2-10c-0.9-2.7-1.9,2.7-5,1C442.4-213.2,444.4-214.2,445-219.3z M448-207.3
				c1.7,1.4,2.9,6,1,8C445.1-199,445.1-206.5,448-207.3z M346-221.3c10.3-1.1,14.1-8.6,19-15c24.7-3.2,49,2.2,74,2
				c5.2,4.1,6.7,16.2,2,22c-3.3-3.5,1.2-15.1-3-20c-24,0.3-42.4-1.9-68-2c-1.7,12.1-4.4,25.4-4,34c-2.7-0.5,1.4-10.6-6-11
				c-4.4,0.9-2.9,6.8-2,9c-2.6,1.6-4.3,0.2-9,1c0.2-6.8,3.4-10.6,6-15c-5.8-0.2-4.4,15.6-14,15C342.6-209.8,346.5-212.5,346-221.3z
				 M326-171.3c-0.3-16.7,4.5-28.2,21-28c-13.6,5.5-19.9,22.2-19,39c-2.9-0.1-6.5,0.5-8-1C320.8-165.8,323.4-168.6,326-171.3z
				 M321-157.3c3-1,7.2-0.8,9-3c-6.2-16.6,10.9-16.6,10-31c2.2-1.1,3.3-3.3,6-4c4.9,0.8,6.8,4.5,11,6c-1.9,4-5.6,0.3-9,2
				c-0.5,4.8,3.9,5.4,7,4c1.4,5.5,3.1,6,6,11c1.5-1.5,5.1-0.9,8-1c2.9,5.6,8.7,5.8,9,12c2.4,0,2.9-1.7,6-1c-1.2,4.4,3.1,6.1,6,9
				c-1.6,5.4-3.2,10.8-12,9c-4.6,12.1-11.9,21.4-17,33c-3-5.3,1.7-10.9,2-17c0.4-8.3-6.3-13.6-7-23c3.2-2.4,12.9,1.5,12-5
				c3.2-0.9,1.4,3.3,3,4c3.7,0.7,7.3,1.4,12,1c-1.9-4.8-7.4-5.9-10-10c-2.1,1.5,3.4,3.9,3,7c-3.7,0.1-4.9-2.5-7-4
				c-3.4-0.7-1.6,3.7-4,4c-3.6,0.2-6-0.7-7-3c-0.6-5.9,6.3-4.4,5-11c-3.4,1.3-2.9,6.4-8,6c0.2,3.2-1.8,4.2-1,8c-8.9,1.5-23,3.5-33,8
				C318.3-148.7,321-154.3,321-157.3z M315-192.3h4C320.2-188.8,313.4-187.7,315-192.3z M312-195.3c2.9-0.2,0,6.1,2.2,8.4
				c0.2,0.1,0.4,0.3,0.8,0.6c-0.3-0.1-0.6-0.3-0.8-0.6c-1.1-0.6-1,0.6-3.2,0.6C310.5-190.2,312.8-191.2,312-195.3z M319-200.3
				c0.2,3.9-8.9,2.2-9,0C310.8-202,318.2-202,319-200.3z M280-199.3c3,0.3,7.8-1.1,8,2c2.8,0.4,0.9-3.7,3-4c2.9,0.1,6.5-0.5,8,1
				c0.6,4.5-2.7,8.5,0,12c6.5,0.2,3.7-8.9,6-13c6.3,0.3,4.7,8.7,5,15c2.2,1.5,5.6,1.7,9,2c-1.3,7.1,1,18.3-1,25
				c-5.9,3.5-18.2,1.4-24,3c-3.4-6-3.2-12.7-6-19C284.5-183.1,274.7-189.9,280-199.3z M300-110.3c1.9,2.1,2,5.4,4,8
				c4.6,5.9,15.3,10,9,17c-7.8,0.1-10-5.4-13-10c-8.8-7.4-23.3-4.9-34-4C267.8-120.4,288.7-122.6,300-110.3z M268-95.3
				c6.5-3.9,17.8-5.4,26-2c-12.1,0.9-14.4,11.6-26,13C267.3-88,266.3-91.9,268-95.3z M269-76.3c-0.7-3.1,1-3.6,1-6
				c10.4-2.9,11.9-14.7,28-12c4.2,9.8,19.1,8.9,18,24c-2.9-0.8-6.6-1.1-9,0c-2.9-6.1-6.5-11.5-13-14c-5.1,0.6-7.7,3.7-10,7
				c2.5,1.2,5.1-6.2,11-5c-5.4,5.2-10.2,6.7-18,8c-1.2,3.2,3.2,0.8,2,4c-2.1,0.9-3,3-6,3C272.2-70.6,273.5-74.7,269-76.3z M275-63.3
				c3.9-8.5,23.8-24.8,29-8c-3.5,0.5-3.3,1.2-6,0c-1.6,2.4-2.1,5.9-4,8h-5c-3.1,0.9-1,7-3,9C278.6-53.5,277.4-59,275-63.3z
				 M317,103.7c-12.9,9.8-18.5-7.2-24-14c5.2-0.6,18.4-0.4,25,1C317.3,94.1,316.8,97.3,317,103.7z M318,85.7c-6.2,3.9-20.8,1.6-26,1
				c-0.3,5.2,6.9,11,8,18c-8.2-6.3-16.5-17.9-14-29c11.7-0.7,20.4,1.6,32,1V85.7z M308,74.7c-6.8,0.4-12.3-1.6-22-1v-5
				c13.9-0.1,21.9,0,33,2C318.3,76.7,312.2,74.5,308,74.7z M287,66.7c-2-3.3-0.5-10.1-1-15c9.4-0.7,16.3,1.1,25,1
				c2.3,3.3,3.4,7.9,7,10c3.5,0.8,3.8-1.5,7-1c0.1-4.5-2.5-6.2-3-10c2.3-2.1,3.6-5.1,5-8c11.6-3.9,10.1,9.4,12,18
				c-3.1,0.7-2.9-1.7-6-1C320,70.6,305.2,66.5,287,66.7z M337,74.7h-7c3.8-2.5-3.4-8.1-4-7.1c0,0,0,0.1,0,0.1c0-0.1,0-0.1,0-0.1
				c0.7-1.7,12.3-8.3,14-1.9C340.8,70.5,335.6,69.3,337,74.7z M360,217.7c-1-17.6,2.8-46.1-7-58c-2.8-8,0.6-18.6-1-25
				c-0.7-2.8-3.3-4.1-4-7c-1.4-5.5,1.3-12.2-3-17c2.8-21.6-5.3-46-6-64c8.2-9.2,28-14.9,43-11c3.8-0.2,0.4,0.8,1,3
				c2.1,1.2,3.9,2.8,6,4c-0.4,2.2-2.3,5.4,1,6c-12.5,4-29.3,4.8-38,15c7-0.4,20.5-7.7,33-6c5.6,0.8,13.4,4.2,14,9
				c1.5,12.3-14.4,7.7-21,14c0.6,4.3,4,1.9,2,7c3.2,1.5,9.3,0,12,2c-5.2,7.5-23.7,1.6-26,12c5.5,1.9,22.7-7.1,28,1
				c-4.7,5.4-22,1.3-25,11c6.4,2.6,13-1.1,21,0c-0.8,6.6-8.3,0.8-10,7c3.6,2.9,8.6-1.4,14,0c2,4.5-0.1,10.4-4,12
				c4.3,7.6,0,16.7-3,23c0.6,4.5,6.4-1.9,6,4c-9.2,2.4-18.9-3.6-22,9c4.3,4.3,11.6-2.2,20,0c3.2,12.1,4.4,31.9-3,43
				c-1.1,3.7,3.4,2,4,4C386.7,230.6,369.4,226.2,360,217.7z M377,96.7c-0.1,2.6-3.7,1.6-5,3C370,98.9,375.2,97,377,96.7z M402,109.7
				c1.3,5.7,2.3,13.4,2,23c-0.1,2.3-2.1,4.2-2,6c0.3,7,4.1,14,2,23c-0.9,3.8-4.3,6.4-5,10c-2.2,11.9,0.9,25.9,0,36
				c-0.4,4.5-0.7,12.2-7,14c1.1-3.8,3.8-9.2-2-10c6.2-12.2,6.8-32.8,3-45c-7.4-1.6-13.4,1.1-19,1c0.8-10.5,23.3,0.6,22-12
				c-1.2-2.5-4.3-1.8-6,0c-0.8-5.7,7.2-15.4,2-23c4.8-0.5,5.3-5.4,5-11c-1-2.3-3.4-3.2-7-3c0.3-2.4,3.5-1.9,3-5
				c-6.6-4.8-11.5-0.4-20-1c2.7-8.3,20.2-1.8,24-9c-3.3-9.4-9.3-5.8-19-6c3.6-4.4,15.3-0.7,17-7c3.8-1.2-3-2-3-3c0-0.4,2.8-2.3,3-2
				c-2.8-3.9-5.6-2.7-13-4c7-4,17.7-4.3,20-13c-3.8-14.6-26.4-14.9-40-9c6.6-7,22.2-5.1,31-10c-2.6-3.4-2.3-9.7-7-11
				c6.2-0.2,13.3,7.4,20,10C399.8,70.3,409,89.8,402,109.7z M378,30.7c-16.5-2.5-28.1,8.5-41,10c3.7-9.2,23.4-14.6,39-13
				c9.6,1,29.6,6.9,32,16C397.4,44.1,390.2,32.5,378,30.7z M408,162.7c0-2.4,1.7-2.9,1-6h3c-0.5,3.1,1.2,4.1,3,5
				C414.2,165.3,411.8,161.6,408,162.7z M411,148.7c-5-3.4-1.8-8.9-2-13c-0.1-2.3-0.9-4.7-1-7c-1.1-17.7,3.3-34,1-59
				c0.4-1.3,1.8-1.6,2-3c3.1-0.7,3.6,1,6,1c3.4,18.6,3.1,46.6-2,72C414.4,142.6,413.9,147.2,411,148.7z M429,216.7
				c-10.3-7.9-7.5-30.1-9-46c-0.4-4.1-2.7-9.3-3-12c-1.4-13.8,4.9-31.2,6-47c1.4-20.1,1.3-37.4-3-57c9.8-17.1,40.5-20.2,57-8
				c-0.7,5.6-10.8,1.9-12,7c-0.4,3.4,0.3,5.7,4,5c-5.3,6.1,4.1,3.8,4,10c-1.9-0.2-9.9,0.7-7-1c-0.1-1.9-3.9,0.6-4,2
				c0.2,3.8,7.4,0.6,9,3c-3.2,3.5-0.7,4.5,0,9c-6.6,0.3-8.9-0.9-14,0c-0.9,3.6,3.9,1.4,6,2c-1,2.5-6.2,2.8-7,0
				c-3.8,6.8,6.7,2.5,10,2c0.1,3.8-5.8,1.5-6,5c1.7,2.3,7.6,0.4,11,1c0.6,2.1,2.5,2.9,2,6c-3.7,5.3-14.3,3.7-17,10
				c0.1,2.9,4.2,1.8,7,2c1.6,10-8.6,8.1-13,12c0.8,5.1,8.8,2.9,12,3c0.2,2.9,1,7.4,1,13c-1.9,0.8-3.7,1.7-6,2c2.5,9-1.4,14.8-6,23
				c-5.8,2.1-9.6,0.3-13,5c1.7,1.9,5.2,2.2,9,2c-3.8,4.5,3.3,4.8,6,6c-3,7.4,3,17.3,3,27c0,2.1-1.7,2.9-2,5c-0.8,5.5,2.4,9.6-2,14
				C444.3,221.3,434.5,220.9,429,216.7z M484,182.7c0.8,3.5-1.1,4.2-2,6c-5.9-3.8-10.2-2.3-18-1v-8
				C470.9,182.6,477.1,180.2,484,182.7z M469,135.7c-0.9,5.7-0.2,11-1,17c-1.3,10.7-8.2,19.8-9,28c-1.4,14.2,12.5,32.5-5,40
				c5.1-10.2,3.3-23.9,0-37c-0.4-3.4,1.7-4.3,3-6c-2-2.6-4.1-5.2-9-5c0.4-1.3,1.8-1.6,2-3c-0.2-3.1-5-1.7-8-2
				c11.3-1.5,18.3-12.1,16-24c1.3-2,4.3-2.4,6-4c0.9-7.7-0.6-10.8,0-15c-2.4-3.4-5.7-0.5-12-2c6.2-2.5,13.3-4.1,14-12
				c-0.5-0.8-1-1.6-1-3h-7c5.6-4,15.2-4.1,18-11c-1.6-3.7-3.5-7.2-9-7c1.6-1.5,3.5-5.2-1-5c2.6-1.4,6.4-1.6,8-4
				c-1.1-0.9-0.3-3.7-3-3c4.9-4-0.7-6.8,5-10c-1.2-2.5-3.4-3.9-6-5c0.4-1.3,1.8-1.6,2-3c-0.7-3.3-4.6-1.8-5-3c-1.5-7.6,9.8-2.2,11-7
				c7.9,4.2,1.9,13.4,1,21c-0.7,6.3,1.8,13.2,1,20c-0.2,2-1.8,4.1-2,6c-0.4,4.6,0.7,9.6,0,14C476.7,119.7,470.3,127.1,469,135.7z"/>
			<path class="st4" d="M364-199.3C361.8-196.2,357.6-200.5,364-199.3L364-199.3z"/>
			<path class="st4" d="M316-186.3C319-190,319.4-183.3,316-186.3L316-186.3z"/>
			<path class="st4" d="M369.1-200.7c0,0.2-0.1,0.3-0.1,0.5C369.1-200.4,369.1-200.6,369.1-200.7z"/>
			<path class="st4" d="M315-186.3c-0.3-0.3-0.6-0.4-0.8-0.6C314.5-186.6,314.7-186.4,315-186.3z"/>
			<path class="st3" d="M360-211.3c-4.4,0.9-2.9,6.8-2,9c-2.6,1.6-4.3,0.2-9,1c0.2-6.8,3.4-10.6,6-15c-5.8-0.2-4.4,15.6-14,15
				c1.6-8.5,5.5-11.2,5-20c10.3-1.1,14.1-8.6,19-15c24.7-3.2,49,2.2,74,2c5.2,4.1,6.7,16.2,2,22c-3.3-3.5,1.2-15.1-3-20
				c-24,0.3-42.4-1.9-68-2c-1.7,12.1-4.4,25.4-4,34C363.3-200.8,367.4-210.9,360-211.3z"/>
			<path class="st3" d="M423-223.3c-15.7-7.4-39.9,0.7-50,11c1.9,7.2-3.4,7.3-4,12c0.7-1.7-2.4-4.9-2-7c0.9-5.1,18.6-19.2,31-21
				C407.7-229.7,416.9-228,423-223.3z"/>
			<path class="st3" d="M426-214.3c-0.5-2.9,4.9,4,7,5C430.7-207,428.3-213.3,426-214.3z"/>
			<path class="st3" d="M280-199.3c3,0.3,7.8-1.1,8,2c2.8,0.4,0.9-3.7,3-4c2.9,0.1,6.5-0.5,8,1c0.6,4.5-2.7,8.5,0,12
				c6.5,0.2,3.7-8.9,6-13c6.3,0.3,4.7,8.7,5,15c2.2,1.5,5.6,1.7,9,2c-1.3,7.1,1,18.3-1,25c-5.9,3.5-18.2,1.4-24,3
				c-3.4-6-3.2-12.7-6-19C284.5-183.1,274.7-189.9,280-199.3z M287-179.3c0.9-6.5,2.6-18.9-5-16C278.9-189.2,283.8-182.5,287-179.3z
				 M295-179.3c2.8-3,11.8,0,12-3c-5.8-1.9-9.4,0.1-14,0c0,2.7,0.4,5.7-1,7c6.8-0.7,14.8,0.8,14-4C304-176.5,296.3-176.3,295-179.3z
				 M310-176.3c3.7,0.4,5.9-0.8,6-4C313.3-184.3,306.8-181,310-176.3z"/>
			<path class="st4" d="M282-195.3c7.6-2.9,5.9,9.5,5,16C283.8-182.5,278.9-189.2,282-195.3z M286-183.3c0.1-4.1-0.1-7.9-4-8
				C282.3-187.6,283.6-184.9,286-183.3z"/>
			<path class="st3" d="M365-198.3c6.1,0.2,21.7-0.4,25,6C384.1-192.9,372.7-196.3,365-198.3z"/>
			<path class="st3" d="M483-195.3c4.4,0,9-0.3,12,1c3.1,4.2,1.4,13.3,6,16c7-1.8-0.8-16.1,6-16c3.9,3,1.7,9.1,2,14
				c0.5,7.3,1.7,15.6,1,23c-10.8-0.5-20.5-1.3-29-2c-0.8-10.7,8.3-15.4,7-25C487.3-189.3,483-188.8,483-195.3z M486-167.3
				c4.4,0.4,7.4-0.6,7-5C489.1-175.1,484.9-174.1,486-167.3z M496-166.3h11c0.9-3.5,0.1-2.5,1-6c-2.7-2-8.7-0.6-13-1
				C495-170.6,494.6-167.6,496-166.3z"/>
			<path class="st3" d="M440-184.3c2.2,15.2-7.1,27.5-18,33c-1.1-0.2-0.6-1,0-1C431.7-159.3,438-169.6,440-184.3z"/>
			<path class="st4" d="M306-179.3c0.8,4.8-7.2,3.3-14,4c1.4-1.3,1-4.3,1-7c4.6,0.1,8.2-1.9,14,0c-0.2,3-9.2,0-12,3
				C296.3-176.3,304-176.5,306-179.3z"/>
			<path class="st3" d="M409-123.3c-0.2,1.4-3,0.3-3,2C403.5-121.7,407-124.2,409-123.3z"/>
			<path class="st3" d="M460-117.3c1.5,1.9,5.2,1.5,5,5C463.4-114,460.4-114.4,460-117.3z"/>
			<path class="st3" d="M466-113.3c4,3.2,14.3,9,8,16C475.6-103.5,468.2-107.7,466-113.3z"/>
			<path class="st4" d="M441-92.3c-2.5-0.8-3.2-3.5-5-5c0.7-3,3.8-3.5,3-8C447.7-107.9,449.2-94,441-92.3z M439-98.3
				c-0.6,3.6,3,3,6,3C446.4-99.8,441-100.2,439-98.3z"/>
			<path class="st3" d="M379-103.3c-2.8-0.4-0.1-3.1,2-2c-0.3,2.9,2.3,3.1,2,6C380.4-98.8,381-106.5,379-103.3z"/>
			<path class="st3" d="M277-74.3c-1.2,3.2,3.2,0.8,2,4c-2.1,0.9-3,3-6,3c-0.8-3.3,0.5-7.4-4-9c-0.7-3.1,1-3.6,1-6
				c10.4-2.9,11.9-14.7,28-12c4.2,9.8,19.1,8.9,18,24c-2.9-0.8-6.6-1.1-9,0c-2.9-6.1-6.5-11.5-13-14c-5.1,0.6-7.7,3.7-10,7
				c2.5,1.2,5.1-6.2,11-5C289.6-77.1,284.8-75.6,277-74.3z"/>
			<path class="st3" d="M471-69.3c-2.2,1.8-4.1,3.9-7,5C462.6-62.3,467.1-70.1,471-69.3z"/>
			<path class="st3" d="M355-50.3c1.3-2.8,4.8,0.5,5,2C362.1-45.9,357.4-50.8,355-50.3z"/>
			<path class="st3" d="M456-31.3c-0.3,5,3.8,5.5,3,11c-28.5,1.4-62-4.3-89,0c-4.2-3.5-13.3-5.6-17-4c2.9-4,13.5-7.1,21-8
				C397.7-35.1,431.6-30,456-31.3z"/>
			<path class="st3" d="M386,38.7c6.2-0.2,13.3,7.4,20,10c-6.2,21.6,3,41.1-4,61c1.3,5.7,2.3,13.4,2,23c-0.1,2.3-2.1,4.2-2,6
				c0.3,7,4.1,14,2,23c-0.9,3.8-4.3,6.4-5,10c-2.2,11.9,0.9,25.9,0,36c-0.4,4.5-0.7,12.2-7,14c1.1-3.8,3.8-9.2-2-10
				c6.2-12.2,6.8-32.8,3-45c-7.4-1.6-13.4,1.1-19,1c0.8-10.5,23.3,0.6,22-12c-1.2-2.5-4.3-1.8-6,0c-0.8-5.7,7.2-15.4,2-23
				c4.8-0.5,5.3-5.4,5-11c-1-2.3-3.4-3.2-7-3c0.3-2.4,3.5-1.9,3-5c-6.6-4.8-11.5-0.4-20-1c2.7-8.3,20.2-1.8,24-9
				c-3.3-9.4-9.3-5.8-19-6c3.6-4.4,15.3-0.7,17-7c3.8-1.2-3-2-3-3c0-0.4,2.8-2.3,3-2c-2.8-3.9-5.6-2.7-13-4c7-4,17.7-4.3,20-13
				c-3.8-14.6-26.4-14.9-40-9c6.6-7,22.2-5.1,31-10C390.4,46.3,390.7,40,386,38.7z"/>
			<path class="st3" d="M466,67.7c-0.1-1.9-3.9,0.6-4,2c0.2,3.8,7.4,0.6,9,3c-3.2,3.5-0.7,4.5,0,9c-6.6,0.3-8.9-0.9-14,0
				c-0.9,3.6,3.9,1.4,6,2c-1,2.5-6.2,2.8-7,0c-3.8,6.8,6.7,2.5,10,2c0.1,3.8-5.8,1.5-6,5c1.7,2.3,7.6,0.4,11,1c0.6,2.1,2.5,2.9,2,6
				c-3.7,5.3-14.3,3.7-17,10c0.1,2.9,4.2,1.8,7,2c1.6,10-8.6,8.1-13,12c0.8,5.1,8.8,2.9,12,3c0.2,2.9,1,7.4,1,13
				c-1.9,0.8-3.7,1.7-6,2c2.5,9-1.4,14.8-6,23c-5.8,2.1-9.6,0.3-13,5c1.7,1.9,5.2,2.2,9,2c-3.8,4.5,3.3,4.8,6,6c-3,7.4,3,17.3,3,27
				c0,2.1-1.7,2.9-2,5c-0.8,5.5,2.4,9.6-2,14c-7.7-0.4-17.5-0.8-23-5c-10.3-7.9-7.5-30.1-9-46c-0.4-4.1-2.7-9.3-3-12
				c-1.4-13.8,4.9-31.2,6-47c1.4-20.1,1.3-37.4-3-57c9.8-17.1,40.5-20.2,57-8c-0.7,5.6-10.8,1.9-12,7c-0.4,3.4,0.3,5.7,4,5
				c-5.3,6.1,4.1,3.8,4,10C471.1,68.5,463.1,69.4,466,67.7z"/>
			<path class="st3" d="M485,77.7c2.5-0.5,12.3,0.3,18,0c-1.1,10-10.8,2.3-18,4C485.3,81.1,487.5,77.8,485,77.7z M498,80.7
				c1.5,1.6,4.5,1.1,4-2C499.7,78.4,498.2,78.9,498,80.7z"/>
			<path class="st3" d="M377,96.7c-0.1,2.6-3.7,1.6-5,3C370,98.9,375.2,97,377,96.7z"/>
			<path class="st4" d="M210,191.7c1.1-4.2-0.1-7.5-2-11c-9.2-4-12.5,8.4-22,4c-0.1-4.5-2.8-6.5-4-10c2.9-0.3,3.1,2.3,6,2
				c-1.7,3.3-0.3,6.1,3,7c6.2-3.5,16.2-8,22-1c0.1,4.6,1.4,8,3,11c4.7-0.7,6.4,1.6,10,2c3.9,4.3,8.1,15.8,4,8c-1.1-2.1-2-2.6-3-6
				C220.9,196.2,215.1,194.3,210,191.7z"/>
			<path class="st4" d="M692,312.7c-10.9-0.4-24.1,3.5-33-3c-0.8,2.2-4.4,1.6-6,3c-0.5-1.5-1.5-2.5-2-4c0.6-4.4,4.8-5.2,7-8
				c-2.4-1.3-3.7-3.7-8-3c-3,1.3-4.6,4.1-8,5c-4.4-1.9-21.8-0.4-19-13c-5.1,4.2-3.6,12.3-1,17c2.4,4.4,9,5.4,10,9
				c-0.9,3.5-0.1,2.5-1,6c-3.9-0.5-4.1,2.5-7,3c4.6,6.9,2,12.4-4,16c0,0.2,0.1,0.5,0.1,0.7c0.4,0,0.9,0,1.3,0c2.8-2,6.5-3,8.5-5.7
				c1.3-6-3.2-6.2-3-11c5.2-0.5,6.2-5.1,9-8c-2.4-9.6-14.4-9.6-15-21c4.4,5.9,12.5,8.2,22,9c2.1-2.6,9.5-8.2,13-3
				c-4.8,0.5-4.7,6-7,9c2.4,1.9,3.1,5.6,7,6c-0.3-2.6,1.4-3.3,4-3c4.4-0.7,4.4,2.9,8,3c11.3,1.2,18.4-3.1,28-2
				c18.8,2.1,32.2,16,45.8,25.8c0.6,0,1.2,0,1.9,0C726.1,328,714.2,313.4,692,312.7z"/>
			<path class="st4" d="M751.7,343.3c1.9,0,3.8,0,5.6,0c-3.7-1.7-8.3-2.6-13.3-2.5c-0.1-0.1-0.2-0.1-0.3-0.2c-0.6,0-1.2,0-1.9,0
				c1,0.8,2.1,1.5,3.2,2.2C747.4,342.8,749.6,342.9,751.7,343.3z"/>
			<path class="st3" d="M289-163.3c4.4,2.3,2.6,10.7,3,17c2.5-0.9-0.3-7,2-8c7.1-1.7,17.9-1.2,24-1v10c-10.2-1.2-17.4,10.1-26,4
				c-2.1,5.4,2.9,3.5,6,3c-2,3-3.3,6.7-9,6C287.7-139.9,289.8-151.1,289-163.3L289-163.3z"/>
		</g>
	</g>
</g>
<g id="Ebene_2_1_">
</g>
</svg>
